<?xml version="1.0" standalone="no"?>
<!DOCTYPE svg PUBLIC "-//W3C//DTD SVG 1.1//EN" "http://www.w3.org/Graphics/SVG/1.1/DTD/svg11.dtd" >
<svg xmlns="http://www.w3.org/2000/svg" xmlns:xlink="http://www.w3.org/1999/xlink" version="1.1">
<metadata>
Created by FontForge 20190801 at Fri Feb 18 23:33:30 2005
 By www-data
Copyright   1996 TypeMarket Ltd. 119136, Russia, Moscow, Box 20; phone:(095)1427712; Created by S.Shanovich
</metadata>
<defs>
<font id="Opiumnewc" horiz-adv-x="587" >
  <font-face 
    font-family="Opiumnewc"
    font-weight="400"
    font-stretch="normal"
    units-per-em="1000"
    panose-1="0 0 5 0 0 0 0 0 0 0"
    ascent="741"
    descent="-259"
    x-height="503"
    cap-height="724"
    bbox="-64 -259 1207 983"
    underline-thickness="51"
    underline-position="-198"
    unicode-range="U+0020-2122"
  />
<missing-glyph horiz-adv-x="500" 
 />
    <glyph glyph-name=".notdef" horiz-adv-x="500" 
 />
    <glyph glyph-name=".null" horiz-adv-x="0" 
 />
    <glyph glyph-name="nonmarkingreturn" horiz-adv-x="333" 
 />
    <glyph glyph-name="space" unicode=" " horiz-adv-x="292" 
 />
    <glyph glyph-name="space" unicode="&#xa0;" horiz-adv-x="292" 
 />
    <glyph glyph-name="exclam" unicode="!" horiz-adv-x="294" 
d="M150 108q25 0 43 -18.5t18 -44.5q0 -25 -18.5 -42t-42.5 -17q-26 0 -43.5 18t-17.5 43t17.5 43t43.5 18zM164 163h-28q-5 59 -15.5 182.5t-17.5 205t-7 91.5q0 79 54 79t54 -79q0 -10 -7 -91.5t-17.5 -205t-15.5 -182.5z" />
    <glyph glyph-name="quotedbl" unicode="&#x22;" horiz-adv-x="429" 
d="M147 459h-37q-25 206 -25 219q0 58 44 58q46 0 46 -58q0 -46 -28 -219zM323 459h-37q-25 206 -25 219q0 58 44 58q46 0 46 -58q0 -46 -28 -219z" />
    <glyph glyph-name="numbersign" unicode="#" 
d="M224 721q15 -3 34 -3q1 0 37 3q-19 -73 -48 -235h126q29 184 29 235l37 -3l35 3q-20 -54 -47 -235q96 0 131 8q-3 -20 -3 -36q0 -14 3 -28q-92 9 -139 9l-26 -161q74 0 131 10q-2 -26 -2 -34q0 -14 2 -32q-49 9 -98 9h-40q-30 -161 -30 -246q-18 3 -33 3q-18 0 -39 -3
q40 179 47 246h-130q-24 -144 -31 -246q-18 3 -36 3t-34 -3q24 87 51 246q-51 0 -125 -9q2 18 2 33q0 11 -2 33q74 -10 132 -10q21 107 27 161q-81 0 -127 -9q2 18 2 31q0 17 -2 33q75 -8 135 -8q31 178 31 235zM236 439q-17 -72 -27 -161h132l25 161h-130z" />
    <glyph glyph-name="dollar" unicode="$" 
d="M251 785q15 -3 35 -3q15 0 30 3q-8 -30 -8 -74q97 -7 173 -56q-34 -48 -41 -91q-54 94 -132 100v-251l49 -20q79 -32 117.5 -74t38.5 -110q0 -83 -59.5 -145.5t-145.5 -73.5q0 -62 8 -105q-15 3 -30 3q-20 0 -35 -3q8 64 8 102q-108 0 -177 64q19 48 26 91
q49 -103 151 -110v299q-104 35 -142 77.5t-38 104.5q0 79 47.5 129.5t132.5 64.5q0 41 -8 78zM308 317v-283q55 11 89 50t34 93q0 40 -23 73.5t-62 50.5zM259 426v235q-47 -7 -72.5 -39t-25.5 -81q0 -44 19 -64.5t79 -50.5z" />
    <glyph glyph-name="percent" unicode="%" horiz-adv-x="939" 
d="M565 721q11 -3 23 -3q14 0 27 3q-120 -360 -240 -740q-15 4 -23 4q-15 0 -27 -4q64 189 240 740zM688 330q67 0 108 -49t41 -121q0 -71 -39 -119t-110 -48q-72 0 -113 47t-41 120t42.5 121.5t111.5 48.5zM686 296q-82 0 -82 -124q0 -145 82 -145q81 0 81 138
q0 131 -81 131zM258 711q67 0 108 -49t41 -121q0 -71 -39 -119t-110 -48q-72 0 -113 47t-41 120t42.5 121.5t111.5 48.5zM256 677q-82 0 -82 -124q0 -145 82 -145q81 0 81 138q0 131 -81 131z" />
    <glyph glyph-name="ampersand" unicode="&#x26;" horiz-adv-x="762" 
d="M355 402q109 -144 182 -223q38 52 119 205q12 -16 42 -42q-23 -40 -68 -103t-68 -88q12 -18 137 -154q-28 3 -64 3q-39 0 -64 -3q-30 47 -65 90q-56 -55 -107.5 -78.5t-116.5 -23.5q-90 0 -142 49.5t-52 129.5q0 135 180 227q-66 95 -66 164q0 67 44.5 109.5t114.5 42.5
q59 0 96.5 -31t37.5 -83q0 -98 -140 -191zM481 114q-39 47 -103 129t-85 114q-115 -60 -115 -163q0 -64 40 -109t106 -45q75 0 157 74zM332 433q93 68 93 149q0 34 -21 57t-53 23q-33 0 -56 -26t-23 -59q0 -61 60 -144z" />
    <glyph glyph-name="quotesingle" unicode="'" horiz-adv-x="294" 
d="M168 459h-37q-25 206 -25 219q0 58 44 58q46 0 46 -58q0 -46 -28 -219z" />
    <glyph glyph-name="parenleft" unicode="(" horiz-adv-x="293" 
d="M241 736l26 -23q-67 -88 -91.5 -183.5t-24.5 -226.5q0 -118 24.5 -213.5t91.5 -187.5l-27 -29q-163 173 -163 432q0 255 164 431z" />
    <glyph glyph-name="parenright" unicode=")" horiz-adv-x="293" 
d="M26 713l26 23q164 -176 164 -431q0 -259 -163 -432l-27 29q67 92 91.5 187.5t24.5 213.5q0 131 -24.5 226.5t-91.5 183.5z" />
    <glyph glyph-name="asterisk" unicode="*" horiz-adv-x="586" 
d="M110 605q28 25 35 62l17 -15q29 -26 57 -44l41 -30l15 -10l-1 23l-2 55q-3 27 -10 59l-4 20l36 -3l36 3l-4 -20q-7 -27 -10 -59l-2 -55l-1 -23l16 10l41 30q17 11 56 44l17 15q6 -38 35 -62l-21 -8q-56 -18 -106 -49l-21 -14l21 -15q35 -22 106 -49l21 -7
q-29 -28 -35 -63l-17 16q-8 6 -26.5 20.5t-29.5 23.5l-41 29l-16 10l1 -22l2 -56q4 -39 10 -58l4 -20l-36 2l-36 -2l4 20q7 29 10 58l2 56l1 22l-15 -10l-41 -29q-26 -19 -57 -44l-17 -16q-6 35 -35 63l22 7q51 18 106 49l21 15l-21 14q-54 32 -106 49z" />
    <glyph glyph-name="plus" unicode="+" horiz-adv-x="939" 
d="M441 292v244h54v-244h246v-56h-246v-246h-54v246h-246v56h246z" />
    <glyph glyph-name="comma" unicode="," horiz-adv-x="294" 
d="M69 -198l-22 13l73 238q17 55 54 55q40 0 40 -40q0 -23 -28 -72z" />
    <glyph glyph-name="hyphen" unicode="-" horiz-adv-x="364" 
d="M18 292h332v-56h-332v56z" />
    <glyph glyph-name="hyphen" unicode="&#xad;" horiz-adv-x="364" 
d="M18 292h332v-56h-332v56z" />
    <glyph glyph-name="period" unicode="." horiz-adv-x="294" 
d="M149 108q25 0 43 -18.5t18 -44.5q0 -25 -18.5 -42t-42.5 -17q-26 0 -43.5 18t-17.5 43t17.5 43t43.5 18z" />
    <glyph glyph-name="slash" unicode="/" horiz-adv-x="294" 
d="M248 783q22 -3 42 -3q3 0 9.5 0.5t16 1.5t13.5 1q-43 -100 -150.5 -406t-124.5 -394q-26 3 -41 3q-24 0 -42 -3q29 55 143.5 383t133.5 417z" />
    <glyph glyph-name="zero" unicode="0" 
d="M297 709q86 0 143 -49t81 -127t24 -181q0 -80 -14 -144.5t-43.5 -115.5t-80.5 -79t-120 -28q-82 0 -137.5 47t-79.5 123t-24 178q0 55 6.5 104.5t24 100.5t44.5 88t72 60t104 23zM293 664q-48 0 -80 -30t-46.5 -85.5t-19 -107t-4.5 -121.5q0 -54 5 -97t19 -91t46 -75
t81 -27q50 0 82.5 30t47 83.5t19 100t4.5 106.5q0 314 -154 314z" />
    <glyph glyph-name="one" unicode="1" 
d="M156 547q-19 29 -42 48q33 10 119 48.5t136 65.5q-8 -63 -8 -324q0 -241 8 -388q-24 3 -50 3q-27 0 -51 -3q8 147 8 388q0 182 -2 230z" />
    <glyph glyph-name="two" unicode="2" 
d="M140 541l-42 67q25 43 77 72t113 29q92 0 148 -49t56 -133q0 -77 -37.5 -137t-131.5 -159l-152 -161q243 0 330 10q-3 -24 -3 -46t3 -43q-56 9 -164 9h-112q-97 0 -176 -9l-7 12l233 247q69 73 94.5 137t25.5 131q0 146 -121 146q-99 0 -134 -123z" />
    <glyph glyph-name="three" unicode="3" 
d="M129 579q-8 32 -27 67q80 63 176 63q79 0 130.5 -45t51.5 -117q0 -129 -115 -171q151 -30 151 -172q0 -104 -76.5 -161.5t-187.5 -57.5q-92 0 -160 38q7 36 11 83q46 -49 77 -65.5t72 -16.5q77 0 119.5 47t42.5 129q0 69 -35.5 107t-98.5 38q-29 0 -59 -9q2 16 2 29
q0 12 -2 28q28 -9 47 -9q56 0 85.5 43.5t29.5 110.5q0 59 -28 95.5t-78 36.5q-68 0 -128 -91z" />
    <glyph glyph-name="four" unicode="4" 
d="M454 697v-2q-9 -72 -9 -233v-197q46 0 95 10q-2 -30 -2 -46q0 -20 2 -42q-25 8 -69 8h-26q0 -113 9 -198l-48 3l-54 -3q7 92 7 198h-149q-84 0 -188 -8l-7 7q64 81 188.5 260.5t157.5 242.5q22 -3 49 -3q23 0 44 3zM128 268q63 -3 104 -3h82q22 0 46 2q3 97 3 202v144
q-166 -229 -235 -345z" />
    <glyph glyph-name="five" unicode="5" 
d="M483 703q-3 -42 -3 -44l3 -45q-111 10 -289 10q-8 -104 -8 -209q71 23 113 23q94 0 150 -57.5t56 -145.5q0 -110 -73 -180t-194 -70q-90 0 -166 44q16 40 23 77q42 -46 75 -61t69 -15q72 0 119 54.5t47 134.5q0 76 -36.5 125t-104.5 49q-58 0 -116 -52l-10 6q9 101 9 182
q0 82 -9 174q63 -9 93 -9h144q49 0 108 9z" />
    <glyph glyph-name="six" unicode="6" 
d="M162 328q54 97 171 97q91 0 147 -55t56 -148q0 -105 -61.5 -171t-170.5 -66q-117 0 -178 79t-61 223q0 114 35 208.5t108.5 154t172.5 59.5q24 0 49 -4q6 -21 18 -51q-33 8 -66 8q-95 0 -150.5 -91t-69.5 -243zM310 380q-66 0 -103.5 -54.5t-37.5 -125.5q0 -74 36 -122
t100 -48q65 0 99.5 53t34.5 131q0 70 -32.5 118t-96.5 48z" />
    <glyph glyph-name="seven" unicode="7" 
d="M555 697l7 -12l-210 -374q-85 -151 -115.5 -212t-42.5 -102q-22 3 -45 3q-35 0 -59 -3q116 164 371 615h-160q-145 0 -192 -9q2 26 2 48q0 24 -2 52q70 -9 201 -9h140q54 0 105 3z" />
    <glyph glyph-name="eight" unicode="8" 
d="M202 395q-49 9 -82 50.5t-33 95.5q0 76 57 122t145 46q84 0 143 -45.5t59 -122.5q0 -117 -115 -146q71 -17 110 -74.5t39 -128.5q0 -104 -69 -155.5t-167 -51.5q-62 0 -113.5 20t-87 68t-35.5 118t35 126.5t114 77.5zM289 371q-65 0 -102 -52t-37 -129q0 -73 36.5 -116.5
t102.5 -43.5t102.5 44.5t36.5 114.5q0 73 -36.5 127.5t-102.5 54.5zM289 664q-49 0 -79.5 -39.5t-30.5 -90.5q0 -53 29.5 -85.5t80.5 -32.5t80.5 32t29.5 85q0 54 -31.5 92.5t-78.5 38.5z" />
    <glyph glyph-name="nine" unicode="9" horiz-adv-x="586" 
d="M429 368q-32 -51 -72 -73.5t-95 -22.5q-90 0 -146 59.5t-56 147.5q0 104 64 167t168 63q117 0 175.5 -82.5t58.5 -219.5q0 -181 -90.5 -301.5t-218.5 -120.5q-44 0 -84 17q-6 29 -24 71q69 -43 114 -43q50 0 90.5 33t65 84.5t37.5 109t13 111.5zM291 664q-65 0 -99.5 -50
t-34.5 -128q0 -79 34 -124t97 -45q65 0 99.5 55t34.5 122q0 68 -33 119t-98 51z" />
    <glyph glyph-name="colon" unicode=":" horiz-adv-x="294" 
d="M147 108q25 0 43 -18.5t18 -44.5q0 -25 -18.5 -42t-42.5 -17q-26 0 -43.5 18t-17.5 43t17.5 43t43.5 18zM147 469q25 0 43 -18.5t18 -44.5q0 -25 -18.5 -42t-42.5 -17q-26 0 -43.5 18t-17.5 43t17.5 43t43.5 18z" />
    <glyph glyph-name="semicolon" unicode=";" horiz-adv-x="294" 
d="M63 -198l-22 13l73 238q17 55 54 55q40 0 40 -40q0 -23 -28 -72zM147 469q25 0 43 -18.5t18 -44.5q0 -25 -18.5 -42t-42.5 -17q-26 0 -43.5 18t-17.5 43t17.5 43t43.5 18z" />
    <glyph glyph-name="less" unicode="&#x3c;" horiz-adv-x="1056" 
d="M829 620q0 -41 21 -62q-148 -56 -541 -242q104 -51 283.5 -132t257.5 -110q-21 -21 -21 -62q-124 61 -326 152.5t-291 126.5q5 12 5 30q0 13 -4 20q126 51 344 150.5t272 128.5z" />
    <glyph glyph-name="equal" unicode="=" horiz-adv-x="926" 
d="M736 225v-55h-546v55h546zM736 357v-56h-546v56h546z" />
    <glyph glyph-name="greater" unicode="&#x3e;" horiz-adv-x="1056" 
d="M227 620q0 -41 -21 -62q148 -56 541 -242q-104 -51 -283.5 -132t-257.5 -110q21 -21 21 -62q124 61 326 152.5t291 126.5q-5 12 -5 30q0 13 4 20q-126 51 -344 150.5t-272 128.5z" />
    <glyph glyph-name="question" unicode="?" horiz-adv-x="411" 
d="M208 108q25 0 43 -18.5t18 -44.5q0 -25 -18.5 -42t-42.5 -17q-26 0 -43.5 18t-17.5 43t17.5 43t43.5 18zM94 688q62 33 111 33q69 0 110 -39.5t41 -105.5q0 -41 -19.5 -78.5t-73.5 -102.5q-80 -96 -80 -127q0 -53 59 -58q14 0 38 14l-21 -56h-23q-56 0 -91 33t-35 90
q0 76 90 168q46 48 64.5 78t18.5 57q0 36 -25.5 60.5t-62.5 24.5q-42 0 -92 -48z" />
    <glyph glyph-name="at" unicode="@" horiz-adv-x="704" 
d="M651 128l7 -12l-9 -62q-106 -59 -235 -59q-173 0 -272 99.5t-99 268.5q0 89 33 159.5t88 113t122 64t140 21.5q48 0 84.5 -8t68 -28t48.5 -59t17 -96v-246q0 -38 7.5 -48t24.5 -10q9 0 21 2l6 -25q-41 -16 -71 -16q-28 0 -44.5 13.5t-24.5 51.5q-88 -65 -161 -65
q-70 0 -110 35t-40 97q0 69 37.5 101t109.5 46l102 19q42 8 52 17t10 45q0 72 -41.5 100t-117.5 28q-98 0 -176 -80.5t-78 -230.5q0 -142 75 -232.5t206 -90.5q119 0 220 87zM563 302v154l-64 -10q-76 -12 -114 -38t-38 -74q0 -89 97 -89q73 0 119 57z" />
    <glyph glyph-name="A" unicode="A" horiz-adv-x="704" 
d="M345 721h25q41 -102 155.5 -366.5t163.5 -356.5q-32 2 -56 2q-26 0 -58 -2q-7 18 -51.5 128.5t-59.5 143.5q-59 9 -139 9q-71 0 -124 -9q-40 -81 -106 -272q-22 2 -38 2q-22 0 -42 -2q26 45 80 160t100 219.5t96.5 220t53.5 123.5zM333 572l-101 -233q56 -7 101 -7
q41 0 99 7q-23 61 -99 233z" />
    <glyph glyph-name="B" unicode="B" horiz-adv-x="648" 
d="M96 724q75 -3 102 -3q15 0 50 1.5t43 1.5q58 0 100.5 -6.5t79 -22.5t55.5 -48t19 -78q0 -66 -40 -108t-120 -69q101 -21 142 -66.5t41 -115.5q0 -105 -79 -159t-205 -54q-20 0 -67 1.5t-61 1.5q-18 0 -60 -3q8 147 8 388q0 276 -8 339zM194 358v-303q44 -2 85 -2
q83 0 135 38.5t52 119.5q0 73 -53 110t-191 37h-28zM194 666v-253q22 -2 53 -2q87 0 141.5 35.5t54.5 102.5q0 60 -46 89.5t-119 29.5q-42 0 -84 -2z" />
    <glyph glyph-name="C" unicode="C" horiz-adv-x="705" 
d="M675 687l-25 -84h-16q-95 86 -201 86q-58 0 -105.5 -19t-79.5 -51t-53.5 -75.5t-31.5 -90.5t-10 -98q0 -84 28.5 -155t94 -119.5t158.5 -48.5q121 0 219 86l8 -11l-10 -63q-105 -59 -234 -59q-168 0 -270 99.5t-102 269.5q0 175 108 278.5t286 103.5q142 0 236 -49z" />
    <glyph glyph-name="D" unicode="D" horiz-adv-x="812" 
d="M96 724q36 -3 108 -3q27 0 92 1.5t94 1.5q174 0 272 -89t98 -248q0 -191 -121 -290.5t-329 -99.5q-18 0 -65 1.5t-63 1.5q-59 0 -86 -3q8 147 8 388q0 276 -8 339zM197 666q-3 -114 -3 -310q0 -175 3 -301q54 -2 119 -2q167 0 251.5 76t84.5 251q0 160 -83 224t-262 64
q-58 0 -110 -2z" />
    <glyph glyph-name="E" unicode="E" horiz-adv-x="528" 
d="M96 724q34 -3 148 -3h111q61 0 123 8q-3 -15 -3 -33q0 -21 3 -36q-84 8 -196 8q-60 0 -82 -2q-6 -122 -6 -140v-123h76q103 0 181 9q-4 -18 -4 -35q0 -11 4 -35q-45 8 -257 8v-146q0 -95 4 -151h97q60 0 184 8q-3 -36 -3 -39q0 -10 3 -25q-61 3 -176 3h-74q-85 0 -133 -3
q8 147 8 388q0 276 -8 339z" />
    <glyph glyph-name="F" unicode="F" horiz-adv-x="521" 
d="M96 724q63 -3 146 -3h100q69 0 147 8q-3 -15 -3 -33q0 -21 3 -36q-84 8 -209 8h-83q-3 -51 -3 -114v-146h76q127 0 196 8q-4 -18 -4 -35q0 -11 4 -35q-50 9 -272 9q0 -236 8 -358q-26 3 -51 3q-31 0 -55 -3q8 147 8 388q0 276 -8 339z" />
    <glyph glyph-name="G" unicode="G" horiz-adv-x="822" 
d="M703 591l-13 -4q-106 102 -240 102q-95 0 -163.5 -47t-101 -120t-32.5 -161q0 -154 78.5 -241.5t231.5 -87.5q95 0 158 32q9 81 9 127q0 41 -9 142q24 -3 55 -3q28 0 52 3q-8 -61 -8 -210q0 -49 8 -97q-108 -25 -160.5 -33t-117.5 -8q-192 0 -298.5 96t-106.5 273
q0 181 112.5 281.5t301.5 100.5q74 0 136 -13.5t135 -53.5q-23 -48 -27 -78z" />
    <glyph glyph-name="H" unicode="H" horiz-adv-x="819" 
d="M202 724q-8 -63 -8 -305q147 -7 234 -7q85 0 197 8q0 241 -8 304q54 -3 57 -3q1 0 49 3q-8 -63 -8 -339q0 -241 8 -388q-48 3 -50 3q-8 0 -56 -3q8 147 8 354q-112 8 -202 8q-89 0 -229 -8q0 -207 8 -354q-48 3 -50 3q-8 0 -56 -3q8 147 8 388q0 276 -8 339q54 -3 57 -3
q1 0 49 3z" />
    <glyph glyph-name="I" unicode="I" horiz-adv-x="298" 
d="M96 724q54 -3 57 -3q1 0 49 3q-8 -63 -8 -339q0 -241 8 -388q-48 3 -50 3q-8 0 -56 -3q8 147 8 388q0 276 -8 339z" />
    <glyph glyph-name="J" unicode="J" horiz-adv-x="297" 
d="M95 724q54 -3 57 -3q1 0 49 3q-7 -83 -7 -255v-261q0 -16 1.5 -63.5t1.5 -57.5q0 -229 -220 -241q0 20 -5 38q24 3 42.5 8t32.5 16.5t23.5 22.5t16 34t10 41.5t5 56t2 66t0.5 81.5v258q0 192 -9 256z" />
    <glyph glyph-name="K" unicode="K" horiz-adv-x="645" 
d="M202 724q-8 -63 -8 -333q107 81 329 333q51 -3 53 -3q10 0 52 3q-197 -181 -340 -326q168 -201 350 -401q-32 3 -65 3q-41 0 -67 -3q-99 135 -312 367q0 -220 8 -367q-48 3 -50 3q-8 0 -56 -3q8 147 8 388q0 276 -8 339q54 -3 57 -3q1 0 49 3z" />
    <glyph glyph-name="L" unicode="L" horiz-adv-x="520" 
d="M96 724q54 -3 57 -3q1 0 49 3q-8 -63 -8 -339q0 -287 3 -332h123q108 0 164 8q0 -4 -1 -13t-1.5 -15.5t-0.5 -10.5q0 -10 3 -25q-48 3 -118 3h-161q-57 0 -109 -3q8 147 8 388q0 276 -8 339z" />
    <glyph glyph-name="M" unicode="M" horiz-adv-x="939" 
d="M146 721h20q41 -86 154.5 -299t152.5 -273q7 14 310 572h19q51 -502 87 -724q-24 3 -49 3q-29 0 -53 -3q-18 236 -55 531q-30 -49 -118 -220t-155 -308h-19q-128 266 -266 519q-14 -86 -33 -265t-19 -257q-18 3 -38 3q-26 0 -42 -3q18 94 52.5 337.5t51.5 386.5z" />
    <glyph glyph-name="N" unicode="N" horiz-adv-x="804" 
d="M96 721h28l521 -550v214q0 276 -8 339q23 -3 36 -3q8 0 35 3q-8 -63 -8 -339q0 -252 8 -399h-28q-80 94 -144 161l-377 394v-156q0 -241 8 -388q-17 3 -35 3q-21 0 -36 -3q8 147 8 388q0 273 -8 336z" />
    <glyph glyph-name="O" unicode="O" horiz-adv-x="877" 
d="M439 736q172 0 282.5 -98.5t110.5 -266.5q0 -166 -113 -276t-287 -110q-170 0 -278.5 100t-108.5 270q0 169 111.5 275t282.5 106zM441 689q-134 0 -211 -89t-77 -245q0 -137 73.5 -230t209.5 -93q130 0 209 90.5t79 245.5q0 148 -73.5 234.5t-209.5 86.5z" />
    <glyph glyph-name="P" unicode="P" horiz-adv-x="605" 
d="M96 724q99 -3 101 -3q19 0 56.5 1.5t49.5 1.5q137 0 197 -43.5t60 -138.5q0 -114 -82.5 -164.5t-217.5 -50.5q-28 0 -66 4v-173q0 -94 8 -161q-26 3 -51 3q-31 0 -55 -3q8 147 8 388q0 276 -8 339zM194 384q24 -4 42 -4q106 0 164 41.5t58 120.5q0 126 -175 126
q-68 0 -89 -3v-281z" />
    <glyph glyph-name="Q" unicode="Q" horiz-adv-x="876" 
d="M809 -169q-50 -22 -94 -47q-134 130 -240 201h-38q-181 0 -286.5 98.5t-105.5 271.5t111.5 277t280.5 104q174 0 284 -97t110 -262q0 -127 -70.5 -234t-195.5 -140q148 -115 244 -172zM440 689q-141 0 -214 -94t-73 -246q0 -131 73.5 -224t201.5 -93q137 0 216 98t79 245
q0 141 -75 227.5t-208 86.5z" />
    <glyph glyph-name="R" unicode="R" horiz-adv-x="648" 
d="M96 724q44 -3 114 -3q12 0 65 1.5t73 1.5q98 0 154 -42.5t56 -122.5q0 -77 -56 -132t-159 -66q206 -263 295 -364q-34 3 -70 3t-66 -3q-110 160 -272 353h-36q0 -227 8 -353q-26 3 -51 3q-31 0 -55 -3q8 147 8 388q0 276 -8 339zM194 665v-262h33q32 0 60 3.5t59 13
t53 25t36.5 42t14.5 61.5q0 57 -44 88.5t-130 31.5q-61 0 -82 -3z" />
    <glyph glyph-name="S" unicode="S" horiz-adv-x="528" 
d="M413 610l-13 -2q-44 81 -133 81q-55 0 -90 -32t-35 -89q0 -54 28.5 -84t85.5 -52l93 -36q59 -22 90.5 -68.5t31.5 -107.5q0 -102 -72 -168.5t-181 -66.5q-103 0 -170 64q16 50 17 76l13 2q71 -95 164 -95q67 0 107.5 40.5t40.5 108.5q0 92 -111 137l-89 36
q-129 52 -129 185q0 93 63 145t155 52q94 0 161 -51q-17 -41 -27 -75z" />
    <glyph glyph-name="T" unicode="T" horiz-adv-x="578" 
d="M338 668q-4 -73 -4 -283q0 -241 8 -388q-48 3 -50 3q-8 0 -56 -3q8 147 8 388q0 210 -4 283h-19q-140 0 -196 -8l3 33l-3 36q133 -8 264 -8t264 8q0 -4 -1 -12t-1.5 -14t-0.5 -10l3 -33q-56 8 -196 8h-19z" />
    <glyph glyph-name="U" unicode="U" horiz-adv-x="807" 
d="M96 724q54 -3 57 -3q1 0 49 3q-7 -83 -7 -255v-189q0 -118 57 -178.5t164 -60.5q59 0 100.5 16t66.5 43t39.5 73t19 94.5t4.5 117.5q0 276 -8 339q20 -3 37 -3q15 0 36 3q-8 -63 -8 -339q0 -221 -72 -310.5t-240 -89.5q-137 0 -211.5 69.5t-74.5 206.5v207q0 192 -9 256z
" />
    <glyph glyph-name="V" unicode="V" horiz-adv-x="704" 
d="M10 724q57 -3 64 -3q6 0 57 3q24 -80 99.5 -271t138.5 -334q55 132 133.5 334.5t96.5 270.5q26 -3 42 -3q1 0 43 3q-35 -69 -134 -309.5t-167 -417.5q-17 3 -35 3q-24 0 -39 -3q-19 63 -132.5 336.5t-166.5 390.5z" />
    <glyph glyph-name="W" unicode="W" horiz-adv-x="1056" 
d="M18 724q38 -3 64 -3q2 0 47 3q51 -217 182 -621q173 505 200 621q33 -3 35 -3t32 3q39 -141 197 -604q33 91 100 313.5t84 290.5q17 -3 38 -3q2 0 41 3q-64 -166 -147.5 -407t-102.5 -320q-16 3 -37 3q-22 0 -37 -3q-22 76 -89.5 290t-96.5 302q-8 -23 -89.5 -255.5
t-115.5 -336.5q-30 3 -36 3q-4 0 -37 -3q-48 166 -126.5 416t-105.5 311z" />
    <glyph glyph-name="X" unicode="X" horiz-adv-x="645" 
d="M51 724q41 -3 67 -3q32 0 53 3q74 -142 160 -281q46 68 102 159t71 122q21 -3 46 -3q22 0 39 3q-63 -77 -227 -326q29 -53 114.5 -192.5t132.5 -208.5q-33 3 -66 3q-2 0 -59 -3q-51 108 -176 321q-119 -187 -190 -321q-18 3 -39 3q-27 0 -46 -3q33 46 132 194t112 174
q-28 50 -117.5 193t-108.5 166z" />
    <glyph glyph-name="Y" unicode="Y" horiz-adv-x="645" 
d="M17 724q63 -3 64 -3q17 0 65 3q71 -148 194 -357q55 87 115.5 197.5t78.5 159.5q5 0 15.5 -1t18 -1.5t11.5 -0.5l48 3q-47 -60 -257 -407q0 -158 8 -320q-48 3 -50 3q-8 0 -56 -3q8 113 8 296q-198 332 -263 431z" />
    <glyph glyph-name="Z" unicode="Z" horiz-adv-x="645" 
d="M57 729q50 -8 251 -8q117 0 296 8l5 -22q-88 -113 -221.5 -309.5t-226.5 -344.5h181q188 0 265 8q-3 -15 -3 -35q0 -22 3 -34q-54 8 -225 8h-201q-66 0 -160 -8l-11 16q56 77 234 338t216 322q-305 0 -403 -8q2 26 2 37q0 20 -2 32z" />
    <glyph glyph-name="bracketleft" unicode="[" horiz-adv-x="294" 
d="M76 730q51 -9 108 -9q29 0 103 9v-63q-57 13 -118 16v-804q72 7 118 16v-63q-74 9 -111 9q-43 0 -100 -9q10 238 10 407v95q0 144 -10 396z" />
    <glyph glyph-name="backslash" unicode="\" horiz-adv-x="294" 
d="M-35 783q21 -3 45 -3q18 0 36 3q30 -114 121.5 -380t155.5 -420q-18 3 -38 3q-27 0 -43 -3q-70 276 -277 800z" />
    <glyph glyph-name="bracketright" unicode="]" horiz-adv-x="294" 
d="M7 667v63q74 -9 103 -9q57 0 108 9q-10 -252 -10 -396v-95q0 -169 10 -407q-57 9 -100 9q-37 0 -111 -9v63q46 -9 118 -16v804q-61 -3 -118 -16z" />
    <glyph glyph-name="asciicircum" unicode="^" horiz-adv-x="528" 
d="M239 792h53q29 -68 70.5 -121.5t115.5 -109.5v-48q-127 48 -212 138q-37 -41 -95 -80t-118 -58v48q134 100 186 231z" />
    <glyph glyph-name="underscore" unicode="_" horiz-adv-x="528" 
d="M528 -179v-53h-528v53h528z" />
    <glyph glyph-name="grave" unicode="`" 
d="M362 565h-38q-70 73 -172 153l6 13q38 -5 55 -5q14 0 59 5q35 -85 90 -166z" />
    <glyph glyph-name="a" unicode="a" horiz-adv-x="508" 
d="M82 394v58q79 61 171 61q83 0 130.5 -45t47.5 -139v-241q0 -40 7 -51.5t25 -11.5q9 0 21 2l6 -25q-45 -16 -72 -16q-50 0 -62 44l-6 22q-83 -66 -162 -66q-69 0 -109.5 35t-40.5 97q0 121 140 146l121 22q52 9 52 41q0 79 -31 113t-91 34q-98 0 -135 -80h-12zM351 101
v154l-66 -10q-152 -23 -152 -112t97 -89q67 0 121 57z" />
    <glyph glyph-name="b" unicode="b" horiz-adv-x="588" 
d="M68 785l51 -3q2 0 47 3q-9 -86 -9 -300v-78q67 106 180 106q95 0 154 -69t59 -176q0 -120 -65.5 -201t-172.5 -81q-97 0 -145 71l-89 -71l-10 4q9 85 9 300v195q0 214 -9 300zM311 468q-43 0 -73.5 -21t-46.5 -56.5t-23 -74.5t-7 -83q0 -95 31 -148.5t109 -53.5t115.5 67
t37.5 165q0 92 -36 148.5t-107 56.5z" />
    <glyph glyph-name="c" unicode="c" horiz-adv-x="505" 
d="M482 469l-25 -75h-12q-49 80 -139 80q-82 0 -127.5 -66.5t-45.5 -156.5q0 -98 52 -162t142 -64q37 0 66.5 13t69.5 56l9 -11l-12 -49q-72 -48 -164 -48q-116 0 -187 73.5t-71 189.5q0 120 74.5 192t196.5 72q90 0 173 -44z" />
    <glyph glyph-name="d" unicode="d" horiz-adv-x="589" 
d="M423 785l51 -3q2 0 47 3q-9 -85 -9 -300v-188q0 -215 9 -300q-23 3 -46 3q-29 0 -52 -3q6 69 6 98q-56 -109 -176 -109q-103 0 -159 75.5t-56 188.5q0 114 62.5 188.5t166.5 74.5q51 0 99 -25t66 -72v69q0 214 -9 300zM284 468q-151 0 -151 -212q0 -44 6.5 -81.5t22 -71
t44 -53t68.5 -19.5q76 0 114 61t38 164q0 91 -36 151.5t-106 60.5z" />
    <glyph glyph-name="e" unicode="e" horiz-adv-x="528" 
d="M470 104l9 -10l-12 -50q-82 -58 -182 -58q-113 0 -180 70.5t-67 188.5q0 121 62 194.5t180 73.5q213 0 213 -237q0 -15 -2 -35q-76 8 -125 8h-233q0 -224 174 -224q90 0 163 79zM133 294h264v29q0 62 -34 106.5t-88 44.5q-63 0 -99 -49.5t-43 -130.5z" />
    <glyph glyph-name="f" unicode="f" horiz-adv-x="293" 
d="M319 787q-3 -42 -3 -45q0 -4 0.5 -12t1.5 -18.5t1 -16.5q-40 15 -62 15q-87 0 -87 -89q0 -52 9 -121q44 0 110 8q-2 -20 -2 -32q0 -13 2 -29q-54 8 -82 8h-30v-158q0 -215 9 -300q-22 3 -46 3q-30 0 -52 -3q9 86 9 300v158h-17q-19 0 -53 -8q3 15 3 30q0 14 -3 31
q25 -8 53 -8h17q0 115 63.5 202.5t130.5 87.5q17 0 28 -3z" />
    <glyph glyph-name="g" unicode="g" horiz-adv-x="532" 
d="M502 516q-2 -16 -2 -25q0 -15 2 -31l-98 8q55 -46 55 -112q0 -69 -59 -117t-134 -48h-46q-70 0 -70 -42t74 -42h117q76 0 123.5 -31.5t47.5 -93.5q0 -88 -74.5 -143t-181.5 -55q-57 0 -103 12t-79.5 44t-33.5 81q0 82 121 122q-77 20 -77 78q0 55 81 87q-112 31 -112 142
q0 85 63.5 124t157.5 39q29 0 68 -2.5t41 -2.5q65 0 119 8zM274 39q-164 0 -164 -113q0 -52 41.5 -77.5t107.5 -25.5q76 0 125 30.5t49 89.5q0 96 -159 96zM256 474q-50 0 -78.5 -33.5t-28.5 -87.5q0 -123 104 -123q50 0 80 33.5t30 90.5q0 50 -28 85t-79 35z" />
    <glyph glyph-name="h" unicode="h" horiz-adv-x="568" 
d="M68 785l51 -3q2 0 47 3q-9 -86 -9 -300v-66q25 47 69 70.5t95 23.5q75 0 124 -44t49 -119q0 -12 -1.5 -47.5t-1.5 -52.5q0 -168 9 -253q-22 3 -46 3q-30 0 -52 -3q9 85 9 253q0 110 -31.5 158t-92.5 48q-43 0 -71 -19.5t-40 -56t-15.5 -67.5t-3.5 -76q0 -155 9 -240
q-22 3 -46 3q-30 0 -52 -3q9 86 9 300v188q0 214 -9 300z" />
    <glyph glyph-name="i" unicode="i" horiz-adv-x="288" 
d="M93 503q6 0 17.5 -1t20 -1.5t13.5 -0.5q2 0 47 3q-9 -84 -9 -253q0 -168 9 -253q-23 3 -46 3q-29 0 -52 -3q9 86 9 253q0 169 -9 253zM144 742q54 0 54 -53q0 -24 -14.5 -39.5t-39.5 -15.5t-39.5 15.5t-14.5 39.5q0 23 15 38t39 15z" />
    <glyph glyph-name="j" unicode="j" horiz-adv-x="293" 
d="M6 -216l-9 32l28 7q24 6 41.5 27t25.5 50.5t11.5 57.5t3.5 57v188q0 215 -9 300q6 0 17.5 -1t20 -1.5t13.5 -0.5q2 0 47 3q-9 -85 -9 -300v-188q0 -28 -0.5 -44.5t-4.5 -41t-10.5 -40t-20 -34t-32.5 -31t-47.5 -23.5t-65.5 -17zM149 742q54 0 54 -53q0 -24 -14.5 -39.5
t-39.5 -15.5t-39.5 15.5t-14.5 39.5q0 23 15 38t39 15z" />
    <glyph glyph-name="k" unicode="k" horiz-adv-x="522" 
d="M68 785l51 -3q2 0 47 3q-9 -86 -9 -300v-202h16q22 0 112 95.5t106 124.5q42 -3 49 -3q4 0 49 3l-239 -214q99 -118 261 -292q-41 3 -60 3q-35 0 -66 -3q-25 40 -91.5 120t-120.5 139h-16q0 -174 9 -259q-22 3 -46 3q-30 0 -52 -3q9 86 9 300v188q0 214 -9 300z" />
    <glyph glyph-name="l" unicode="l" horiz-adv-x="278" 
d="M90 785l51 -3q2 0 47 3q-9 -86 -9 -300v-188q0 -215 9 -300q-22 3 -46 3q-30 0 -52 -3q9 86 9 300v188q0 214 -9 300z" />
    <glyph glyph-name="m" unicode="m" horiz-adv-x="866" 
d="M68 503l51 -3q2 0 47 3q-5 -43 -5 -75q50 85 155 85q56 0 92.5 -23.5t55.5 -80.5q24 47 67.5 75.5t103.5 28.5q73 0 115 -43.5t42 -119.5q0 -12 -1.5 -47.5t-1.5 -52.5q0 -168 9 -253q-22 3 -46 3q-30 0 -52 -3q9 86 9 253q0 121 -24.5 163.5t-83.5 42.5q-40 0 -66.5 -15
t-39.5 -46.5t-17.5 -67.5t-4.5 -90q0 -155 9 -240q-22 3 -46 3q-30 0 -52 -3q9 85 9 253q0 121 -24.5 163.5t-83.5 42.5q-40 0 -66.5 -15t-39.5 -46.5t-17.5 -67.5t-4.5 -90q0 -155 9 -240q-22 3 -46 3q-30 0 -52 -3q9 86 9 253q0 169 -9 253z" />
    <glyph glyph-name="n" unicode="n" horiz-adv-x="568" 
d="M68 503l51 -3q2 0 47 3q-5 -43 -5 -78q24 43 67 65.5t93 22.5q75 0 124 -44t49 -119q0 -12 -1.5 -47.5t-1.5 -52.5q0 -168 9 -253q-22 3 -46 3q-30 0 -52 -3q9 85 9 253q0 110 -31.5 158t-92.5 48q-43 0 -71 -19.5t-40 -56t-15.5 -67.5t-3.5 -76q0 -155 9 -240
q-22 3 -46 3q-30 0 -52 -3q9 86 9 253q0 169 -9 253z" />
    <glyph glyph-name="o" unicode="o" horiz-adv-x="582" 
d="M297 513q112 0 179.5 -73t67.5 -187q0 -117 -70 -192t-186 -75q-113 0 -181.5 72.5t-68.5 180.5q0 124 72 199t187 75zM294 474q-77 0 -119 -68t-42 -164q0 -92 39 -154.5t114 -62.5t119 64.5t44 167.5q0 91 -38 154t-117 63z" />
    <glyph glyph-name="p" unicode="p" horiz-adv-x="585" 
d="M68 503l51 -3q2 0 47 3q-6 -51 -6 -89q36 52 75 75.5t96 23.5q98 0 157 -69t59 -181q0 -53 -13 -100.5t-40 -88t-73.5 -64.5t-106.5 -24q-50 0 -85 15.5t-72 63.5q0 -199 9 -285q-23 3 -46 3q-30 0 -52 -3q9 85 9 300v123q0 215 -9 300zM306 468q-42 0 -72 -19.5
t-46 -53.5t-23.5 -72.5t-7.5 -83.5q0 -90 34 -149t112 -59q149 0 149 219q0 218 -146 218z" />
    <glyph glyph-name="q" unicode="q" horiz-adv-x="585" 
d="M517 503q-9 -86 -9 -300v-123q0 -214 9 -300q-22 3 -52 3q-23 0 -46 -3q9 86 9 285q-37 -48 -72 -63.5t-85 -15.5q-60 0 -106.5 24t-73.5 64.5t-40 88t-13 100.5q0 112 59 181t157 69q57 0 96 -23.5t75 -75.5q0 38 -6 89q45 -3 47 -3zM279 468q-146 0 -146 -218
q0 -219 149 -219q78 0 112 59t34 149q0 45 -7.5 83.5t-23.5 72.5t-46 53.5t-72 19.5z" />
    <glyph glyph-name="r" unicode="r" horiz-adv-x="335" 
d="M68 503l51 -3q2 0 47 3q-6 -58 -6 -93q67 103 136 103q17 0 39 -7q-18 -49 -18 -89q-35 13 -55 13q-60 0 -82.5 -46.5t-22.5 -133.5q0 -168 9 -253q-22 3 -46 3q-30 0 -52 -3q9 86 9 253q0 169 -9 253z" />
    <glyph glyph-name="s" unicode="s" horiz-adv-x="411" 
d="M340 479q-19 -40 -30 -73q-38 68 -103 68q-37 0 -61 -22.5t-24 -59.5q0 -74 109 -101q72 -18 104.5 -46.5t32.5 -89.5q0 -71 -58 -120t-135 -49t-132 41q18 32 32 73q46 -75 119 -75q45 0 74.5 25t29.5 67q0 24 -8.5 41t-27.5 28t-36 17t-46 14q-128 34 -128 141
q0 70 47 112.5t123 42.5q65 0 118 -34z" />
    <glyph glyph-name="t" unicode="t" horiz-adv-x="312" 
d="M282 38v-31q-33 -21 -76 -21q-61 0 -90 31.5t-29 99.5v338q-45 0 -67 -8q2 18 2 34q0 13 -2 27q21 -8 67 -8q0 60 -9 105q54 18 98 43q-9 -51 -9 -148q94 0 114 8q-2 -18 -2 -28q0 -13 2 -33q-33 8 -114 8v-321q0 -58 15 -83t60 -25q23 0 40 12z" />
    <glyph glyph-name="u" unicode="u" horiz-adv-x="568" 
d="M68 503l51 -3q2 0 47 3q-9 -85 -9 -253q0 -111 31.5 -159t92.5 -48q43 0 71 19.5t40 56.5t15.5 68t3.5 76q0 155 -9 240l51 -3q2 0 47 3q-9 -84 -9 -253q0 -168 9 -253q-22 3 -46 3q-30 0 -52 -3q5 42 5 78q-24 -43 -67.5 -66t-92.5 -23q-75 0 -124 44.5t-49 119.5
q0 12 1.5 47.5t1.5 52.5q0 168 -9 253z" />
    <glyph glyph-name="v" unicode="v" horiz-adv-x="528" 
d="M12 502q36 -2 58 -2q26 0 51 3q17 -61 67.5 -188t93.5 -212q45 102 92 227t56 173q23 -3 45 -3q15 0 41 2q-26 -35 -100 -206.5t-120 -297.5q-18 2 -31 2q-15 0 -34 -3q-39 105 -118.5 291.5t-100.5 213.5z" />
    <glyph glyph-name="w" unicode="w" horiz-adv-x="808" 
d="M12 503q26 -3 55 -3t54 3q13 -63 53.5 -182.5t74.5 -202.5q30 73 70.5 195t57.5 190q16 -3 36 -3q19 0 35 3q27 -105 131 -387q92 223 133 387q21 -3 43 -3q21 0 41 3q-46 -84 -110 -241.5t-98 -264.5q-15 3 -30 3t-30 -3q-12 47 -29.5 102.5t-30.5 92t-38 102.5t-35 94
q-7 -21 -27 -75t-29.5 -82.5t-25 -73t-27.5 -83.5t-22 -77q-14 3 -31 3q-18 0 -30 -3q-78 247 -191 506z" />
    <glyph glyph-name="x" unicode="x" horiz-adv-x="504" 
d="M15 503q28 -3 61 -3q25 0 48 3q37 -67 133 -195q97 122 138 195q18 -3 38 -3q21 0 37 3q-28 -31 -95.5 -113.5t-91.5 -116.5q124 -175 209 -276q-27 3 -56 3q-37 0 -65 -3q-34 75 -139 211q-18 -23 -74 -103t-73 -108q-18 3 -36 3q-21 0 -37 -3q83 104 194 247
q-98 143 -191 259z" />
    <glyph glyph-name="y" unicode="y" horiz-adv-x="526" 
d="M12 503q27 -3 62 -3q30 0 56 3q10 -89 150 -397q42 97 92 231.5t50 165.5q25 -3 51 -3q21 0 41 3q-22 -24 -165 -349t-147 -374q-19 3 -41 3q-29 0 -51 -3q21 30 64 107.5t58 110.5q-53 132 -124 295.5t-96 209.5z" />
    <glyph glyph-name="z" unicode="z" horiz-adv-x="513" 
d="M80 508q92 -8 237 -8q105 0 161 8l10 -15q-184 -239 -335 -448h123q144 0 197 8q-2 -20 -2 -35q0 -12 2 -26q-55 8 -181 8h-124q-62 0 -134 -8l-9 11q288 385 328 452q-198 0 -273 -9q3 30 3 31t-3 31z" />
    <glyph glyph-name="braceleft" unicode="{" horiz-adv-x="469" 
d="M395 825l9 -32l-25 -6q-84 -20 -84 -207v-86q0 -79 -19 -119.5t-85 -74.5v-14q66 -34 85 -74.5t19 -119.5v-86q0 -187 84 -207l25 -6l-9 -32q-92 12 -136.5 59.5t-44.5 134.5v133q0 65 -19 118t-64 61l-35 6q3 12 3 20q0 9 -3 20l35 6q45 8 64 61t19 118v133
q0 87 44.5 134.5t136.5 59.5z" />
    <glyph glyph-name="bar" unicode="|" horiz-adv-x="528" 
d="M290 797v-1056h-53v1056h53z" />
    <glyph glyph-name="braceright" unicode="}" horiz-adv-x="469" 
d="M65 793l9 32q92 -12 136.5 -59.5t44.5 -134.5v-133q0 -65 19 -118t64 -61l35 -6q-3 -10 -3 -20q0 -8 3 -20l-35 -6q-45 -8 -64 -61t-19 -118v-133q0 -87 -44.5 -134.5t-136.5 -59.5l-9 32l25 6q84 20 84 207v86q0 79 19 119.5t85 74.5v14q-66 34 -85 74.5t-19 119.5v86
q0 187 -84 207z" />
    <glyph glyph-name="asciitilde" unicode="~" horiz-adv-x="1056" 
d="M795 361l55 -46q-74 -88 -173 -88q-47 0 -136 38t-143 38q-83 0 -129 -82l-63 38l10 16q59 104 169 104q48 0 151.5 -37.5t146.5 -37.5q52 0 112 57z" />
    <glyph glyph-name="currency" unicode="&#xa4;" 
d="M114 627l71 -71q62 51 148 51q80 0 148 -51l69 71l34 -34l-72 -69q50 -60 50 -145q0 -94 -50 -148l71 -71l-33 -32l-69 70q-73 -50 -149 -50q-79 0 -147 50l-71 -70l-32 32l70 71q-49 63 -49 148q0 76 49 145l-70 69zM332 555q-75 0 -126 -50.5t-51 -128.5
q0 -76 52 -126.5t125 -50.5q75 0 127 50.5t52 127.5q0 75 -52 126.5t-127 51.5z" />
    <glyph glyph-name="brokenbar" unicode="&#xa6;" horiz-adv-x="528" 
d="M237 -232v474h53v-474h-53zM290 769v-474h-53v474h53z" />
    <glyph glyph-name="section" unicode="&#xa7;" horiz-adv-x="586" 
d="M468 666q-26 -37 -47 -93h-7q-27 102 -118 102q-45 0 -77 -26.5t-32 -70.5q0 -41 27 -65t85 -47l84 -33q111 -43 111 -146q0 -60 -52 -129q36 -42 36 -100q0 -87 -64 -145t-159 -58q-74 0 -151 41q16 62 16 119h7q41 -112 160 -112q55 0 93.5 32t38.5 82q0 37 -24.5 60
t-72.5 43l-104 43q-126 52 -126 152q0 73 64 135q-27 47 -27 92q0 80 52.5 130t134.5 50q85 0 152 -56zM178 424q-26 -33 -26 -67q0 -65 72 -94l145 -61q32 -14 44 -25q23 32 23 66q0 66 -86 101l-100 40q-27 9 -44 21z" />
    <glyph glyph-name="copyright" unicode="&#xa9;" horiz-adv-x="528" 
d="M373 679q-6 -13 -11 -34h-6q-33 35 -82 35q-56 0 -84 -39.5t-28 -96.5q0 -54 28.5 -91.5t83.5 -37.5q48 0 90 34l3 -4q-4 -14 -4 -26q-39 -23 -95 -23q-67 0 -109 39.5t-42 108.5t44 112t116 43q62 0 96 -20zM265 795q105 0 176.5 -71.5t71.5 -175.5q0 -98 -69 -173
t-178 -75q-103 0 -175 72t-72 176q0 98 69.5 172.5t176.5 74.5zM266 758q-87 0 -148.5 -59.5t-61.5 -150.5q0 -88 60.5 -149.5t149.5 -61.5q87 0 148.5 63t61.5 148q0 87 -62 148.5t-148 61.5z" />
    <glyph glyph-name="guillemotleft" unicode="&#xab;" horiz-adv-x="392" 
d="M365 392q-58 -74 -98 -140q40 -65 101 -146q-33 -9 -55 -35q-74 123 -120 181q83 113 120 182q17 -33 52 -42zM213 392q-58 -74 -98 -140q40 -65 101 -146q-33 -9 -55 -35q-74 123 -120 181q83 113 120 182q17 -33 52 -42z" />
    <glyph glyph-name="logicalnot" unicode="&#xac;" horiz-adv-x="926" 
d="M736 292v-301h-54v245h-492v56h546z" />
    <glyph glyph-name="registered" unicode="&#xae;" horiz-adv-x="528" 
d="M170 695q32 -2 47 -2q6 0 26 1t28 1q37 0 60 -17.5t23 -47.5q0 -32 -23.5 -53.5t-63.5 -25.5q16 -18 57 -70.5t60 -73.5q-14 2 -27 2q-12 0 -26 -2q-34 50 -108 140h-15q0 -69 3 -140q-10 2 -20 2q-11 0 -21 -2q3 71 3 149q0 84 -3 139zM208 672v-105h13q34 0 61 13.5
t27 43.5q0 50 -68 50q-15 0 -33 -2zM265 795q105 0 176.5 -72t71.5 -175t-72.5 -175.5t-174.5 -72.5q-101 0 -174 69t-73 179q0 95 67.5 171t178.5 76zM266 758q-89 0 -149.5 -59.5t-60.5 -150.5q0 -90 61.5 -150.5t148.5 -60.5q88 0 149 63t61 148t-61 147.5t-149 62.5z
" />
    <glyph glyph-name="degree" unicode="&#xb0;" 
d="M296 712q69 0 119 -49t50 -119q0 -71 -49 -120t-120 -49q-69 0 -119 49t-50 119q0 69 49 119t120 50zM296 665q-51 0 -86.5 -33.5t-35.5 -88.5q0 -54 36 -87.5t86 -33.5q52 0 87 35t35 86q0 52 -36 87t-86 35z" />
    <glyph glyph-name="plusminus" unicode="&#xb1;" horiz-adv-x="939" 
d="M741 38v-56h-546v56h546zM441 393v245h54v-245h246v-56h-246v-246h-54v246h-246v56h246z" />
    <glyph glyph-name="mu" unicode="&#xb5;" 
d="M161 506h101l-87 -286q-17 -54 -17 -89q0 -33 24 -53t59 -20q37 0 68 23.5t54 68.5t36 80t28 87l56 189h96l-76 -264q-39 -136 -39 -242h-95q0 59 3 86l-16 -23q-51 -78 -122 -78q-39 0 -62 19.5t-37 64.5l-90 -243h-109q74 164 138 381z" />
    <glyph glyph-name="mu" unicode="&#x3bc;" 
d="M161 506h101l-87 -286q-17 -54 -17 -89q0 -33 24 -53t59 -20q37 0 68 23.5t54 68.5t36 80t28 87l56 189h96l-76 -264q-39 -136 -39 -242h-95q0 59 3 86l-16 -23q-51 -78 -122 -78q-39 0 -62 19.5t-37 64.5l-90 -243h-109q74 164 138 381z" />
    <glyph glyph-name="paragraph" unicode="&#xb6;" 
d="M560 746h-71v-911h-41v911h-51v-911h-41v462q-110 15 -171 81.5t-61 159.5q0 67 26.5 117t74 78.5t106.5 42t132 13.5h97v-43z" />
    <glyph glyph-name="periodcentered" unicode="&#xb7;" horiz-adv-x="294" 
d="M148 416q25 0 43 -18.5t18 -44.5q0 -25 -18.5 -42t-42.5 -17q-26 0 -43.5 18t-17.5 43t17.5 43t43.5 18z" />
    <glyph glyph-name="periodcentered" unicode="&#x2219;" horiz-adv-x="294" 
d="M148 416q25 0 43 -18.5t18 -44.5q0 -25 -18.5 -42t-42.5 -17q-26 0 -43.5 18t-17.5 43t17.5 43t43.5 18z" />
    <glyph glyph-name="guillemotright" unicode="&#xbb;" horiz-adv-x="392" 
d="M26 392q35 9 52 42q37 -69 120 -182q-46 -58 -120 -181q-22 26 -55 35q61 81 101 146q-40 66 -98 140zM178 392q35 9 52 42q37 -69 120 -182q-46 -58 -120 -181q-22 26 -55 35q61 81 101 146q-40 66 -98 140z" />
    <glyph glyph-name="afii10023" unicode="&#x401;" horiz-adv-x="528" 
d="M96 724q34 -3 148 -3h111q61 0 123 8q-3 -15 -3 -33q0 -21 3 -36q-84 8 -196 8q-60 0 -82 -2q-6 -122 -6 -140v-123h76q103 0 181 9q-4 -18 -4 -35q0 -11 4 -35q-45 8 -257 8v-146q0 -95 4 -151h97q60 0 184 8q-3 -36 -3 -39q0 -10 3 -25q-61 3 -176 3h-74q-85 0 -133 -3
q8 147 8 388q0 276 -8 339zM187 896q54 0 54 -53q0 -24 -14.5 -39.5t-39.5 -15.5t-39.5 15.5t-14.5 39.5q0 23 15 38t39 15zM377 896q54 0 54 -53q0 -24 -14.5 -39.5t-39.5 -15.5t-39.5 15.5t-14.5 39.5q0 23 15 38t39 15z" />
    <glyph glyph-name="afii10051" unicode="&#x402;" horiz-adv-x="776" 
d="M338 668q-4 -73 -4 -287q101 55 166 55q62 0 108.5 -20.5t71.5 -53.5t36.5 -67.5t11.5 -69.5q0 -240 -208 -240q-52 0 -109 32q11 11 22.5 35t12.5 35q18 -34 34 -47.5t40 -13.5q118 0 118 184q0 85 -38 127.5t-105 42.5q-72 0 -116.5 -28t-44.5 -59q0 -154 8 -296
q-48 3 -50 3q-8 0 -56 -3q8 147 8 388q0 210 -4 283h-19q-140 0 -196 -8l3 33l-3 36q133 -8 264 -8q149 0 282 8q0 -4 -1 -12t-1.5 -14t-0.5 -10l3 -33q-56 8 -214 8h-19z" />
    <glyph glyph-name="afii10052" unicode="&#x403;" horiz-adv-x="521" 
d="M96 724q63 -3 146 -3h100q69 0 147 8q-3 -15 -3 -33q0 -21 3 -36q-84 8 -209 8h-83q-3 -22 -3 -283q0 -241 8 -388q-48 3 -50 3q-8 0 -56 -3q8 147 8 388q0 276 -8 339zM305 762h-35q41 88 81 221q34 -7 55 -7q9 0 51 7l4 -18q-92 -107 -156 -203z" />
    <glyph glyph-name="afii10053" unicode="&#x404;" horiz-adv-x="705" 
d="M675 687l-25 -84h-16q-93 86 -201 86q-118 0 -190.5 -78.5t-86.5 -201.5h154q115 0 265 8q0 -4 -1 -12.5t-1.5 -14.5t-0.5 -8q0 -1 3 -34q-138 8 -265 8h-157q0 -60 17 -116t50 -103.5t88.5 -76t125.5 -28.5q38 0 101 21.5t118 64.5l8 -11l-10 -63l-29 -15
q-86 -44 -205 -44q-168 0 -270 99.5t-102 269.5q0 173 109 277.5t285 104.5q140 0 236 -49z" />
    <glyph glyph-name="afii10054" unicode="&#x405;" horiz-adv-x="528" 
d="M413 610l-13 -2q-44 81 -133 81q-55 0 -90 -32t-35 -89q0 -54 28.5 -84t85.5 -52l93 -36q59 -22 90.5 -68.5t31.5 -107.5q0 -102 -72 -168.5t-181 -66.5q-103 0 -170 64q16 50 17 76l13 2q71 -95 164 -95q67 0 107.5 40.5t40.5 108.5q0 92 -111 137l-89 36
q-129 52 -129 185q0 93 63 145t155 52q94 0 161 -51q-17 -41 -27 -75z" />
    <glyph glyph-name="afii10055" unicode="&#x406;" horiz-adv-x="298" 
d="M96 724q54 -3 57 -3q1 0 49 3q-8 -63 -8 -339q0 -241 8 -388q-48 3 -50 3q-8 0 -56 -3q8 147 8 388q0 276 -8 339z" />
    <glyph glyph-name="afii10056" unicode="&#x407;" horiz-adv-x="298" 
d="M93 724q54 -3 57 -3q1 0 49 3q-8 -63 -8 -339q0 -241 8 -388q-48 3 -50 3q-8 0 -56 -3q8 147 8 388q0 276 -8 339zM73 892q54 0 54 -53q0 -24 -14.5 -39.5t-39.5 -15.5t-39.5 15.5t-14.5 39.5q0 23 15 38t39 15zM228 892q54 0 54 -53q0 -24 -14.5 -39.5t-39.5 -15.5
t-39.5 15.5t-14.5 39.5q0 23 15 38t39 15z" />
    <glyph glyph-name="afii10057" unicode="&#x408;" horiz-adv-x="297" 
d="M95 724q54 -3 57 -3q1 0 49 3q-7 -83 -7 -255v-261q0 -16 1.5 -63.5t1.5 -57.5q0 -229 -220 -241q0 20 -5 38q24 3 42.5 8t32.5 16.5t23.5 22.5t16 34t10 41.5t5 56t2 66t0.5 81.5v258q0 192 -9 256z" />
    <glyph glyph-name="afii10058" unicode="&#x409;" horiz-adv-x="924" 
d="M316 721h60l100 -323q43 12 107 12q309 0 309 -201q0 -105 -79 -158.5t-205 -53.5q-72 0 -119 3l-173 572q-123 -314 -221 -575q-18 3 -38 3q-24 0 -42 -3q25 44 148 340t153 384zM494 338l91 -285q99 0 152 41t53 116q0 147 -199 147q-62 0 -97 -19z" />
    <glyph glyph-name="afii10059" unicode="&#x40a;" horiz-adv-x="1091" 
d="M202 724q-8 -63 -8 -305q147 -7 234 -7q55 0 167 8q0 241 -8 304q54 -3 57 -3q1 0 49 3q-8 -63 -8 -312h52q40 0 77.5 -3.5t84 -16t80 -33.5t57 -59t23.5 -89q0 -105 -76.5 -159.5t-207.5 -54.5q-11 0 -46.5 1.5t-46.5 1.5q-58 0 -95 -3q8 147 8 354q-112 8 -172 8
q-89 0 -229 -8q0 -207 8 -354q-48 3 -50 3q-8 0 -56 -3q8 147 8 388q0 276 -8 339q54 -3 57 -3q1 0 49 3zM685 354q0 -136 5 -299q48 -2 80 -2q187 0 187 162q0 144 -222 144q-28 0 -50 -5z" />
    <glyph glyph-name="afii10060" unicode="&#x40b;" horiz-adv-x="776" 
d="M338 668q-4 -73 -4 -287q103 56 166 56q62 0 108 -20.5t70 -53.5t35 -67.5t11 -69.5q0 -96 7 -229q-48 3 -50 3q-8 0 -56 -3q6 76 6 170q0 111 -32 162.5t-104 51.5q-62 0 -111.5 -26t-49.5 -62q0 -154 8 -296q-48 3 -50 3q-8 0 -56 -3q8 147 8 388q0 210 -4 283h-19
q-140 0 -196 -8l3 33l-3 36q133 -8 264 -8q149 0 282 8q0 -4 -1 -12t-1.5 -14t-0.5 -10l3 -33q-56 8 -214 8h-19z" />
    <glyph glyph-name="afii10061" unicode="&#x40c;" horiz-adv-x="645" 
d="M202 724q-8 -63 -8 -333q107 81 329 333q51 -3 53 -3q10 0 52 3q-197 -181 -340 -326q168 -201 350 -401q-32 3 -65 3q-41 0 -67 -3q-99 135 -312 367q0 -220 8 -367q-48 3 -50 3q-8 0 -56 -3q8 147 8 388q0 276 -8 339q54 -3 57 -3q1 0 49 3zM351 762h-35q41 88 81 221
q34 -7 55 -7q9 0 51 7l4 -18q-92 -107 -156 -203z" />
    <glyph glyph-name="afii10062" unicode="&#x40e;" horiz-adv-x="704" 
d="M9 724q27 -3 61 -3t61 3q15 -33 58 -112t112.5 -203.5t90.5 -162.5q38 76 111 246.5t96 231.5q18 -3 39 -3q26 0 48 3q-62 -119 -180.5 -369.5t-183.5 -395.5q-24 3 -32 3q-6 0 -39 -3q61 110 96 191q-14 24 -107.5 187.5t-151 261t-79.5 125.5zM544 937q0 -47 15 -92
q-87 -56 -189 -56q-55 0 -95 13t-86 41q13 36 13 94h6q26 -58 60 -81.5t101 -23.5q65 0 104 25t65 80h6z" />
    <glyph glyph-name="afii10145" unicode="&#x40f;" horiz-adv-x="818" 
d="M96 724q54 -3 57 -3q1 0 49 3q-8 -63 -8 -339q0 -223 5 -318q132 -9 224 -9q47 0 196 9q5 122 5 318q0 276 -8 339q54 -3 57 -3q1 0 49 3q-8 -63 -8 -339q0 -241 8 -388q-64 3 -189 3q-59 0 -83.5 -36.5t-24.5 -128.5h-32q0 92 -24.5 128.5t-83.5 36.5q-138 0 -189 -3
q8 147 8 388q0 276 -8 339z" />
    <glyph glyph-name="afii10017" unicode="&#x410;" horiz-adv-x="704" 
d="M345 721h25q41 -102 155.5 -366.5t163.5 -356.5q-32 2 -56 2q-26 0 -58 -2q-7 18 -51.5 128.5t-59.5 143.5q-59 9 -139 9q-71 0 -124 -9q-40 -81 -106 -272q-22 2 -38 2q-22 0 -42 -2q26 45 80 160t100 219.5t96.5 220t53.5 123.5zM333 572l-101 -233q56 -7 101 -7
q41 0 99 7q-23 61 -99 233z" />
    <glyph glyph-name="afii10018" unicode="&#x411;" horiz-adv-x="645" 
d="M94 724q192 -9 193 -9q89 0 235 9q-3 -18 -3 -36q0 -1 3 -34q-102 14 -184 14q-80 0 -146 -6v-251h51q38 0 74 -3.5t84 -15.5t82 -32.5t58.5 -59t24.5 -90.5q0 -106 -78.5 -160t-206.5 -53q-6 0 -55 1.5t-74 1.5q-34 0 -58 -3q8 147 8 388q0 276 -8 339zM192 358v-303
q52 -2 85 -2q89 0 138 40.5t49 117.5q0 82 -63 114.5t-209 32.5z" />
    <glyph glyph-name="afii10019" unicode="&#x412;" horiz-adv-x="648" 
d="M96 724q75 -3 102 -3q15 0 50 1.5t43 1.5q58 0 100.5 -6.5t79 -22.5t55.5 -48t19 -78q0 -66 -40 -108t-120 -69q101 -21 142 -66.5t41 -115.5q0 -105 -79 -159t-205 -54q-20 0 -67 1.5t-61 1.5q-18 0 -60 -3q8 147 8 388q0 276 -8 339zM194 358v-303q44 -2 85 -2
q83 0 135 38.5t52 119.5q0 73 -53 110t-191 37h-28zM194 666v-253q22 -2 53 -2q87 0 141.5 35.5t54.5 102.5q0 60 -46 89.5t-119 29.5q-42 0 -84 -2z" />
    <glyph glyph-name="afii10020" unicode="&#x413;" horiz-adv-x="521" 
d="M96 724q63 -3 146 -3h100q69 0 147 8q-3 -15 -3 -33q0 -21 3 -36q-84 8 -209 8h-83q-3 -22 -3 -283q0 -241 8 -388q-48 3 -50 3q-8 0 -56 -3q8 147 8 388q0 276 -8 339z" />
    <glyph glyph-name="afii10021" unicode="&#x414;" horiz-adv-x="832" 
d="M407 721h25q191 -453 289 -663l81 7l-21 -228h-31q0 95 -22 129t-69 34h-497q-49 0 -70.5 -34t-21.5 -129h-31l-21 229l88 -11q102 199 301 666zM395 574q-183 -433 -216 -518q78 -3 85 -3h302q29 0 47 3q-108 273 -218 518z" />
    <glyph glyph-name="afii10022" unicode="&#x415;" horiz-adv-x="528" 
d="M96 724q34 -3 148 -3h111q61 0 123 8q-3 -15 -3 -33q0 -21 3 -36q-84 8 -196 8q-60 0 -82 -2q-6 -122 -6 -140v-123h76q103 0 181 9q-4 -18 -4 -35q0 -11 4 -35q-45 8 -257 8v-146q0 -95 4 -151h97q60 0 184 8q-3 -36 -3 -39q0 -10 3 -25q-61 3 -176 3h-74q-85 0 -133 -3
q8 147 8 388q0 276 -8 339z" />
    <glyph glyph-name="afii10024" unicode="&#x416;" horiz-adv-x="990" 
d="M450 391q0 270 -8 333q54 -3 57 -3q1 0 49 3q-8 -63 -8 -333q61 46 168 158t162 175q42 -3 50 -3q32 0 54 3q-194 -174 -340 -326l351 -401q-30 3 -62 3q-47 0 -71 -3q-49 69 -156 195t-156 171q0 -225 8 -366q-48 3 -50 3q-8 0 -56 -3q8 141 8 366q-49 -45 -156 -171
t-156 -195q-24 3 -71 3q-32 0 -62 -3l351 401q-146 152 -340 326q22 -3 54 -3q8 0 50 3q55 -63 162 -175t168 -158z" />
    <glyph glyph-name="afii10025" unicode="&#x417;" horiz-adv-x="574" 
d="M82 595l-16 3q-13 49 -24 73q66 65 196 65q50 0 92 -8.5t78.5 -28t57.5 -56.5t21 -88q0 -133 -162 -172q99 -15 146 -63t47 -118q0 -103 -81 -160t-193 -57q-136 0 -219 76q14 41 17 76l14 2q80 -107 190 -107q82 0 126 43.5t44 126.5q0 71 -47.5 111t-130.5 40
q-31 0 -86 -7q3 15 3 31q0 21 -4 34q40 -8 89 -8q64 0 108 45t44 105t-47.5 98t-106.5 38q-57 0 -92.5 -21.5t-63.5 -72.5z" />
    <glyph glyph-name="afii10026" unicode="&#x418;" horiz-adv-x="850" 
d="M96 724q54 -3 57 -3q1 0 49 3q-8 -63 -8 -339v-224q360 361 513 563q9 -3 21 -3t26 3q-8 -63 -8 -339q0 -241 8 -388q-48 3 -50 3q-8 0 -56 -3q8 147 8 388v165q-107 -99 -257.5 -261.5t-260.5 -291.5q-8 3 -22 3q-12 0 -20 -3q8 147 8 388q0 276 -8 339z" />
    <glyph glyph-name="afii10027" unicode="&#x419;" horiz-adv-x="850" 
d="M96 724q54 -3 57 -3q1 0 49 3q-8 -63 -8 -339v-224q360 361 513 563q9 -3 21 -3t26 3q-8 -63 -8 -339q0 -241 8 -388q-48 3 -50 3q-8 0 -56 -3q8 147 8 388v165q-107 -99 -257.5 -261.5t-260.5 -291.5q-8 3 -22 3q-12 0 -20 -3q8 147 8 388q0 276 -8 339zM617 937
q0 -47 15 -92q-87 -56 -189 -56q-55 0 -95 13t-86 41q13 36 13 94h6q26 -58 60 -81.5t101 -23.5q65 0 104 25t65 80h6z" />
    <glyph glyph-name="afii10028" unicode="&#x41a;" horiz-adv-x="645" 
d="M202 724q-8 -63 -8 -333q107 81 329 333q51 -3 53 -3q10 0 52 3q-197 -181 -340 -326q168 -201 350 -401q-32 3 -65 3q-41 0 -67 -3q-99 135 -312 367q0 -220 8 -367q-48 3 -50 3q-8 0 -56 -3q8 147 8 388q0 276 -8 339q54 -3 57 -3q1 0 49 3z" />
    <glyph glyph-name="afii10029" unicode="&#x41b;" horiz-adv-x="704" 
d="M345 721h25q41 -102 155.5 -366.5t163.5 -356.5q-32 2 -56 2q-26 0 -58 -2q-103 265 -242 574q-155 -340 -238 -574q-22 2 -38 2q-22 0 -42 -2q26 45 80 160t100 219.5t96.5 220t53.5 123.5z" />
    <glyph glyph-name="afii10030" unicode="&#x41c;" horiz-adv-x="939" 
d="M146 721h20q41 -86 154.5 -299t152.5 -273q7 14 310 572h19q51 -502 87 -724q-24 3 -49 3q-29 0 -53 -3q-18 236 -55 531q-30 -49 -118 -220t-155 -308h-19q-128 266 -266 519q-14 -86 -33 -265t-19 -257q-18 3 -38 3q-26 0 -42 -3q18 94 52.5 337.5t51.5 386.5z" />
    <glyph glyph-name="afii10031" unicode="&#x41d;" horiz-adv-x="819" 
d="M202 724q-8 -63 -8 -305q147 -7 234 -7q85 0 197 8q0 241 -8 304q54 -3 57 -3q1 0 49 3q-8 -63 -8 -339q0 -241 8 -388q-48 3 -50 3q-8 0 -56 -3q8 147 8 354q-112 8 -202 8q-89 0 -229 -8q0 -207 8 -354q-48 3 -50 3q-8 0 -56 -3q8 147 8 388q0 276 -8 339q54 -3 57 -3
q1 0 49 3z" />
    <glyph glyph-name="afii10032" unicode="&#x41e;" horiz-adv-x="877" 
d="M439 736q172 0 282.5 -98.5t110.5 -266.5q0 -166 -113 -276t-287 -110q-170 0 -278.5 100t-108.5 270q0 169 111.5 275t282.5 106zM441 689q-134 0 -211 -89t-77 -245q0 -137 73.5 -230t209.5 -93q130 0 209 90.5t79 245.5q0 148 -73.5 234.5t-209.5 86.5z" />
    <glyph glyph-name="afii10033" unicode="&#x41f;" horiz-adv-x="837" 
d="M96 724q117 -9 327 -9q192 0 318 9q-8 -63 -8 -339q0 -241 8 -388q-48 3 -50 3q-8 0 -56 -3q8 147 8 388q0 197 -4 269q-114 8 -216 8q-123 0 -225 -8q-4 -48 -4 -269q0 -241 8 -388q-48 3 -50 3q-8 0 -56 -3q8 147 8 388q0 276 -8 339z" />
    <glyph glyph-name="afii10034" unicode="&#x420;" horiz-adv-x="605" 
d="M96 724q99 -3 101 -3q19 0 56.5 1.5t49.5 1.5q137 0 197 -43.5t60 -138.5q0 -114 -82.5 -164.5t-217.5 -50.5q-28 0 -66 4v-173q0 -94 8 -161q-26 3 -51 3q-31 0 -55 -3q8 147 8 388q0 276 -8 339zM194 384q24 -4 42 -4q106 0 164 41.5t58 120.5q0 126 -175 126
q-68 0 -89 -3v-281z" />
    <glyph glyph-name="afii10035" unicode="&#x421;" horiz-adv-x="705" 
d="M675 687l-25 -84h-16q-95 86 -201 86q-58 0 -105.5 -19t-79.5 -51t-53.5 -75.5t-31.5 -90.5t-10 -98q0 -84 28.5 -155t94 -119.5t158.5 -48.5q121 0 219 86l8 -11l-10 -63q-105 -59 -234 -59q-168 0 -270 99.5t-102 269.5q0 175 108 278.5t286 103.5q142 0 236 -49z" />
    <glyph glyph-name="afii10036" unicode="&#x422;" horiz-adv-x="578" 
d="M338 668q-4 -73 -4 -283q0 -241 8 -388q-48 3 -50 3q-8 0 -56 -3q8 147 8 388q0 210 -4 283h-19q-140 0 -196 -8l3 33l-3 36q133 -8 264 -8t264 8q0 -4 -1 -12t-1.5 -14t-0.5 -10l3 -33q-56 8 -196 8h-19z" />
    <glyph glyph-name="afii10037" unicode="&#x423;" horiz-adv-x="704" 
d="M9 724q27 -3 61 -3t61 3q15 -33 58 -112t112.5 -203.5t90.5 -162.5q38 76 111 246.5t96 231.5q18 -3 39 -3q26 0 48 3q-62 -119 -180.5 -369.5t-183.5 -395.5q-24 3 -32 3q-6 0 -39 -3q61 110 96 191q-14 24 -107.5 187.5t-151 261t-79.5 125.5z" />
    <glyph glyph-name="afii10038" unicode="&#x424;" horiz-adv-x="952" 
d="M423 762q54 -3 57 -3q1 0 49 3l-5 -82q104 0 189.5 -33t139.5 -103t54 -166q0 -139 -113 -228.5t-269 -89.5l4 -91q-48 3 -50 3q-8 0 -56 -3l4 91q-156 0 -269 89t-113 227q0 97 54 167.5t139.5 103.5t189.5 33zM428 99q3 61 3 305q0 175 -2 237q-123 0 -199.5 -73
t-76.5 -192q0 -113 78 -195t197 -82zM523 641q-2 -62 -2 -237q0 -244 3 -305q119 0 197 82t78 195q0 118 -77 191.5t-199 73.5z" />
    <glyph glyph-name="afii10039" unicode="&#x425;" horiz-adv-x="645" 
d="M51 724q41 -3 67 -3q32 0 53 3q74 -142 160 -281q46 68 102 159t71 122q21 -3 46 -3q22 0 39 3q-63 -77 -227 -326q29 -53 114.5 -192.5t132.5 -208.5q-33 3 -66 3q-2 0 -59 -3q-51 108 -176 321q-119 -187 -190 -321q-18 3 -39 3q-27 0 -46 -3q33 46 132 194t112 174
q-28 50 -117.5 193t-108.5 166z" />
    <glyph glyph-name="afii10040" unicode="&#x426;" horiz-adv-x="818" 
d="M96 724q54 -3 57 -3q1 0 49 3q-8 -63 -8 -339q0 -223 5 -318q132 -9 224 -9q47 0 196 9q5 122 5 318q0 276 -8 339q54 -3 57 -3q1 0 49 3q-8 -63 -8 -339q0 -225 5 -329l80 7l-22 -228h-30q0 40 -2.5 66.5t-11.5 46t-19 29t-32 15.5t-43 7t-59 1h-295q-138 0 -189 -3
q8 147 8 388q0 276 -8 339z" />
    <glyph glyph-name="afii10041" unicode="&#x427;" horiz-adv-x="718" 
d="M516 724q54 -3 57 -3q1 0 49 3q-8 -63 -8 -339q0 -241 8 -388q-48 3 -50 3q-8 0 -56 -3q8 147 8 331q-105 -56 -185 -56q-129 0 -194 66.5t-65 174.5q0 147 -7 211q54 -3 57 -3q1 0 49 3q-7 -49 -7 -179q0 -107 40.5 -162t133.5 -55q147 0 178 75q0 258 -8 321z" />
    <glyph glyph-name="afii10042" unicode="&#x428;" horiz-adv-x="1162" 
d="M96 724q54 -3 57 -3q1 0 49 3q-8 -63 -8 -339q0 -212 5 -317q91 -10 193 -10h139q5 142 5 327q0 276 -8 339q54 -3 57 -3q1 0 49 3q-8 -63 -8 -339q0 -184 5 -327h128q137 0 204 10q5 139 5 317q0 276 -8 339q54 -3 57 -3q1 0 49 3q-8 -63 -8 -339q0 -241 8 -388
q-38 3 -150 3q-18 0 -146.5 -1.5t-182.5 -1.5q-44 0 -180.5 1.5t-204.5 1.5q-73 0 -106 -3q8 147 8 388q0 276 -8 339z" />
    <glyph glyph-name="afii10043" unicode="&#x429;" horiz-adv-x="1162" 
d="M96 724q54 -3 57 -3q1 0 49 3q-8 -63 -8 -339q0 -212 5 -317q91 -10 193 -10h139q5 142 5 327q0 276 -8 339q54 -3 57 -3q1 0 49 3q-8 -63 -8 -339q0 -184 5 -327h128q137 0 204 10q5 139 5 317q0 276 -8 339q54 -3 57 -3q1 0 49 3q-8 -63 -8 -339q0 -225 5 -329l80 7
l-22 -228h-30q0 40 -2.5 66.5t-11.5 46t-19 29t-32 15.5t-43 7t-59 1q-18 0 -150.5 -1.5t-186.5 -1.5q-44 0 -180.5 1.5t-204.5 1.5q-73 0 -106 -3q8 147 8 388q0 276 -8 339z" />
    <glyph glyph-name="afii10044" unicode="&#x42a;" horiz-adv-x="697" 
d="M299 724q-8 -63 -8 -313q28 4 52 4q30 0 54 -1t59 -5.5t61.5 -12.5t56 -23t48 -36t31 -53.5t12.5 -72.5q0 -105 -76.5 -159.5t-207.5 -54.5q-11 0 -46.5 1.5t-46.5 1.5q-58 0 -95 -3q8 147 8 388q0 209 -4 277q-5 0 -46.5 -1t-78.5 -2.5t-50 -3.5q2 16 2 36q0 17 -2 33
q142 -7 174 -7q49 0 103 7zM291 354q0 -136 5 -299q48 -2 80 -2q90 0 138.5 41.5t48.5 120.5q0 84 -55.5 115.5t-166.5 31.5q-29 0 -50 -8z" />
    <glyph glyph-name="afii10045" unicode="&#x42b;" horiz-adv-x="894" 
d="M96 724q54 -3 57 -3q1 0 49 3q-8 -63 -8 -313q28 4 52 4q30 0 54 -1t59 -5.5t61.5 -12.5t56 -23t48 -36t31 -53.5t12.5 -72.5q0 -105 -76.5 -159.5t-207.5 -54.5q-11 0 -46.5 1.5t-46.5 1.5q-57 0 -95 -3q8 147 8 388q0 276 -8 339zM194 354q0 -136 5 -299q48 -2 80 -2
q90 0 138.5 41.5t48.5 120.5q0 84 -55.5 115.5t-166.5 31.5q-29 0 -50 -8zM692 724q54 -3 57 -3q1 0 49 3q-8 -63 -8 -339q0 -241 8 -388q-48 3 -50 3q-8 0 -56 -3q8 147 8 388q0 276 -8 339z" />
    <glyph glyph-name="afii10046" unicode="&#x42c;" horiz-adv-x="600" 
d="M96 724q54 -3 57 -3q1 0 49 3q-8 -63 -8 -313q28 4 52 4q30 0 54 -1t59 -5.5t61.5 -12.5t56 -23t48 -36t31 -53.5t12.5 -72.5q0 -105 -76.5 -159.5t-207.5 -54.5q-11 0 -46.5 1.5t-46.5 1.5q-57 0 -95 -3q8 147 8 388q0 276 -8 339zM194 354q0 -136 5 -299q48 -2 80 -2
q90 0 138.5 41.5t48.5 120.5q0 84 -55.5 115.5t-166.5 31.5q-29 0 -50 -8z" />
    <glyph glyph-name="afii10047" unicode="&#x42d;" horiz-adv-x="704" 
d="M92 604h-16q-9 43 -24 84q91 48 235 48q176 0 274 -98.5t98 -270.5q0 -175 -107 -278.5t-287 -103.5q-46 0 -111 20t-95 50q10 40 10 88q38 -53 101 -82t115 -29q87 0 148.5 47.5t88 119t26.5 157.5h-180q-102 0 -216 -8q3 17 3 34q0 19 -3 35q156 -8 278 -8h119
q-30 280 -253 280q-137 0 -204 -85z" />
    <glyph glyph-name="afii10048" unicode="&#x42e;" horiz-adv-x="1132" 
d="M96 724q54 -3 57 -3q1 0 49 3q-8 -63 -8 -306q36 -2 58 -2q24 0 54 2q2 30 13.5 67t40.5 82.5t70.5 82t110.5 61.5t153 25q174 0 283.5 -97t109.5 -268t-114 -278.5t-286 -107.5q-170 0 -278 103.5t-108 266.5v9q-34 2 -55 2q-24 0 -52 -2q0 -220 8 -367q-48 3 -50 3
q-8 0 -56 -3q8 147 8 388q0 276 -8 339zM697 689q-134 0 -215 -89.5t-81 -243.5q0 -138 77.5 -231t212.5 -93q141 0 214.5 95.5t73.5 240.5q0 65 -17 121.5t-50 102t-88.5 71.5t-126.5 26z" />
    <glyph glyph-name="afii10049" unicode="&#x42f;" horiz-adv-x="648" 
d="M454 343h-39q-104 -108 -270 -346q-31 3 -65 3q-43 0 -70 -3q114 127 291 346q-90 8 -142.5 59t-52.5 126q0 82 57 139t167 57q15 0 56 -1.5t52 -1.5q70 0 114 3q-8 -63 -8 -339q0 -241 8 -388q-48 3 -50 3q-8 0 -56 -3q8 147 8 346zM450 663q-65 13 -107 13
q-60 0 -102 -32.5t-42 -87.5q0 -76 60 -119t137 -43q32 0 58 4q0 198 -4 265z" />
    <glyph glyph-name="afii10065" unicode="&#x430;" horiz-adv-x="511" 
d="M82 382v62q28 34 75 51.5t96 17.5q83 0 130.5 -43.5t47.5 -133.5v-248q0 -36 7.5 -49.5t24.5 -13.5q12 0 24 4l6 -24q-38 -19 -75 -19q-50 0 -62 44l-6 22q-83 -66 -162 -66q-69 0 -109.5 35t-40.5 97q0 120 159 149l102 19q52 9 52 41q0 77 -30.5 107t-91.5 30
q-48 0 -80 -18t-55 -64h-12zM351 101v154l-66 -10q-152 -23 -152 -112t97 -89q67 0 121 57z" />
    <glyph glyph-name="afii10066" unicode="&#x431;" horiz-adv-x="589" 
d="M497 796h31l-25 -63q-18 -45 -47.5 -62t-79.5 -24q-69 -10 -114 -28t-68 -47t-31 -61.5t-8 -79.5v-29q22 47 72 79t103 32q98 0 159.5 -67t61.5 -186q0 -115 -65 -194.5t-180 -79.5q-129 0 -183.5 80.5t-54.5 261.5q0 98 26.5 170t102.5 152q83 86 214 98q86 8 86 48z
M308 468q-51 0 -85.5 -36t-47 -83t-12.5 -102q0 -54 12.5 -100t46 -81t83.5 -35q74 0 112.5 62t38.5 164q0 97 -36.5 154t-111.5 57z" />
    <glyph glyph-name="afii10067" unicode="&#x432;" horiz-adv-x="523" 
d="M68 503q30 -3 66 -3q18 0 64 1.5t59 1.5q95 0 147 -32.5t52 -90.5q0 -50 -35.5 -78.5t-80.5 -35.5v-6q29 -4 47 -8.5t42 -17t36.5 -36.5t12.5 -59q0 -41 -23.5 -71t-60 -44.5t-69.5 -20.5t-63 -6q-18 0 -59 1.5t-51 1.5q-50 0 -84 -3q9 86 9 253q0 169 -9 253zM157 283
q70 -5 89 -5q57 0 87 25t30 71q0 36 -32 63t-83 27q-42 0 -86 -9q-5 -73 -5 -172zM157 234q0 -98 5 -188q44 -10 93 -10q58 0 94 29.5t36 81.5q0 46 -37.5 69t-101.5 23q-69 0 -89 -5z" />
    <glyph glyph-name="afii10068" unicode="&#x433;" horiz-adv-x="430" 
d="M405 502q-2 -14 -2 -34q0 -14 2 -30q-122 7 -243 7q-5 -47 -5 -195q0 -168 9 -253q-22 3 -46 3q-30 0 -52 -3q9 86 9 253q0 169 -9 253q50 -10 140 -10q87 0 197 9z" />
    <glyph glyph-name="afii10069" unicode="&#x434;" horiz-adv-x="622" 
d="M15 61l67 -9q88 185 202 463q16 -3 34 -3q19 0 37 3q126 -307 198 -458l54 4l-15 -203h-35q4 27 4 57q0 85 -55 85h-374q-26 0 -37.5 -4.5t-20.5 -28t-9 -72.5q0 -19 2 -37h-37zM157 52q110 -5 143 -5q52 0 152 8q-55 166 -152 372q-94 -218 -143 -375z" />
    <glyph glyph-name="afii10070" unicode="&#x435;" horiz-adv-x="528" 
d="M470 104l9 -10l-12 -50q-82 -58 -182 -58q-113 0 -180 70.5t-67 188.5q0 121 62 194.5t180 73.5q213 0 213 -237q0 -15 -2 -35q-76 8 -125 8h-233q0 -224 174 -224q90 0 163 79zM133 294h264v29q0 62 -34 106.5t-88 44.5q-63 0 -99 -49.5t-43 -130.5z" />
    <glyph glyph-name="afii10072" unicode="&#x436;" horiz-adv-x="810" 
d="M356 503q6 0 17.5 -1t20 -1.5t13.5 -0.5q2 0 47 3q-9 -84 -9 -220h16q22 0 112 95.5t106 124.5q42 -3 49 -3q4 0 49 3l-239 -214q99 -118 261 -292q-41 3 -60 3q-35 0 -66 -3q-25 40 -91.5 120t-120.5 139h-16q0 -174 9 -259q-22 3 -46 3q-30 0 -52 -3q9 85 9 259h-16
q-54 -59 -120.5 -139t-91.5 -120q-31 3 -66 3q-19 0 -60 -3q162 174 261 292l-239 214q45 -3 49 -3q7 0 49 3q16 -29 106 -124.5t112 -95.5h16q0 136 -9 220z" />
    <glyph glyph-name="afii10073" unicode="&#x437;" horiz-adv-x="482" 
d="M81 409q-8 24 -27 50q89 54 175 54q40 0 80 -10t74 -38.5t34 -71.5q0 -95 -97 -114v-7q64 -13 94 -41.5t30 -79.5q0 -45 -24.5 -79t-63 -51.5t-77.5 -26t-77 -8.5q-43 0 -92 16t-75 41q19 25 31 73q23 -36 63.5 -63.5t85.5 -27.5q53 0 92.5 32.5t39.5 86.5q0 49 -37 75
t-96 26q-30 0 -63 -7q4 18 4 31q0 12 -4 32q38 -8 64 -8q105 0 105 91q0 90 -97 90q-71 0 -142 -65z" />
    <glyph glyph-name="afii10074" unicode="&#x438;" horiz-adv-x="593" 
d="M129 -3q-13 3 -29 3q-8 0 -32 -3q9 86 9 253q0 169 -9 253l51 -3q2 0 47 3q-9 -84 -9 -253q0 -73 2 -129q47 57 156 196.5t142 185.5q17 -3 30 -3q5 0 38 3q-9 -84 -9 -253q0 -168 9 -253q-23 3 -46 3q-29 0 -52 -3q9 85 9 253q0 95 -2 137q-48 -48 -153 -183.5
t-152 -206.5z" />
    <glyph glyph-name="afii10075" unicode="&#x439;" horiz-adv-x="593" 
d="M129 -3q-13 3 -29 3q-8 0 -32 -3q9 86 9 253q0 169 -9 253l51 -3q2 0 47 3q-9 -84 -9 -253q0 -73 2 -129q47 57 156 196.5t142 185.5q17 -3 30 -3q5 0 38 3q-9 -84 -9 -253q0 -168 9 -253q-23 3 -46 3q-29 0 -52 -3q9 85 9 253q0 95 -2 137q-48 -48 -153 -183.5
t-152 -206.5zM175 689l2 2q45 -75 128 -75q89 0 133 75l4 -2q0 -38 11 -73q-72 -37 -148 -37q-75 0 -142 37q9 30 12 73z" />
    <glyph glyph-name="afii10076" unicode="&#x43a;" horiz-adv-x="522" 
d="M68 503l51 -3q2 0 47 3q-9 -84 -9 -220h16q22 0 112 95.5t106 124.5q42 -3 49 -3q4 0 49 3l-239 -214q99 -118 261 -292q-41 3 -60 3q-35 0 -66 -3q-25 40 -91.5 120t-120.5 139h-16q0 -174 9 -259q-22 3 -46 3q-30 0 -52 -3q9 86 9 253q0 169 -9 253z" />
    <glyph glyph-name="afii10077" unicode="&#x43b;" horiz-adv-x="528" 
d="M233 503q14 -3 30 -3q19 0 34 3q39 -102 115 -284.5t104 -221.5q-42 3 -58 3q-12 0 -51 -3q-77 230 -161 399q-120 -272 -148 -399q-22 3 -45 3q-19 0 -41 -3q46 81 111 232t110 274z" />
    <glyph glyph-name="afii10078" unicode="&#x43c;" horiz-adv-x="680" 
d="M652 -3l-51 3q-35 0 -47 -3q0 138 -28 358q-68 -126 -178 -358q-10 3 -19 3q-13 0 -22 -3q-24 55 -52.5 109t-74.5 135t-60 106q-5 -36 -11.5 -177t-6.5 -173q-16 3 -37 3q-19 0 -37 -3q19 82 39 266.5t20 239.5q21 -3 27 -3q13 0 24 3q20 -55 94.5 -195t114.5 -202
q47 88 116 229.5t77 167.5q14 -3 28 -3q13 0 25 3q8 -86 28 -259.5t31 -246.5z" />
    <glyph glyph-name="afii10079" unicode="&#x43d;" horiz-adv-x="575" 
d="M68 503l51 -3q2 0 47 3q-9 -85 -9 -207q84 -4 135 -4q66 0 126 4q0 123 -9 207l51 -3q2 0 47 3q-9 -84 -9 -253q0 -168 9 -253q-23 3 -46 3q-29 0 -52 -3q9 85 9 243q-103 7 -127 7q-67 0 -134 -5q0 -160 9 -245q-22 3 -46 3q-30 0 -52 -3q9 86 9 253q0 169 -9 253z" />
    <glyph glyph-name="afii10080" unicode="&#x43e;" horiz-adv-x="582" 
d="M297 513q112 0 179.5 -73t67.5 -187q0 -117 -70 -192t-186 -75q-113 0 -181.5 72.5t-68.5 180.5q0 124 72 199t187 75zM294 474q-77 0 -119 -68t-42 -164q0 -92 39 -154.5t114 -62.5t119 64.5t44 167.5q0 91 -38 154t-117 63z" />
    <glyph glyph-name="afii10081" unicode="&#x43f;" horiz-adv-x="565" 
d="M68 503q76 -6 123 -6h187q45 0 119 6q-9 -84 -9 -253q0 -168 9 -253q-23 3 -46 3q-29 0 -52 -3q9 85 9 253q0 120 -4 193q-47 4 -122 4q-62 0 -121 -3q-4 -95 -4 -194q0 -168 9 -253q-22 3 -46 3q-30 0 -52 -3q9 86 9 253q0 169 -9 253z" />
    <glyph glyph-name="afii10082" unicode="&#x440;" horiz-adv-x="585" 
d="M68 503l51 -3q2 0 47 3q-6 -51 -6 -89q36 52 75 75.5t96 23.5q98 0 157 -69t59 -181q0 -53 -13 -100.5t-40 -88t-73.5 -64.5t-106.5 -24q-50 0 -85 15.5t-72 63.5q0 -199 9 -285q-23 3 -46 3q-30 0 -52 -3q9 85 9 300v123q0 215 -9 300zM306 468q-42 0 -72 -19.5
t-46 -53.5t-23.5 -72.5t-7.5 -83.5q0 -90 34 -149t112 -59q149 0 149 219q0 218 -146 218z" />
    <glyph glyph-name="afii10083" unicode="&#x441;" horiz-adv-x="505" 
d="M482 469l-25 -75h-12q-49 80 -139 80q-82 0 -127.5 -66.5t-45.5 -156.5q0 -98 52 -162t142 -64q37 0 66.5 13t69.5 56l9 -11l-12 -49q-72 -48 -164 -48q-116 0 -187 73.5t-71 189.5q0 120 74.5 192t196.5 72q90 0 173 -44z" />
    <glyph glyph-name="afii10084" unicode="&#x442;" horiz-adv-x="480" 
d="M460 502q-3 -18 -3 -35t3 -28q-62 2 -126 2h-54v-191q0 -168 9 -253q-23 3 -46 3q-29 0 -52 -3q9 85 9 253v191h-54q-64 0 -126 -2q3 11 3 28t-3 35q95 -9 137 -9h166q43 0 137 9z" />
    <glyph glyph-name="afii10085" unicode="&#x443;" horiz-adv-x="526" 
d="M12 503q27 -3 62 -3q30 0 56 3q10 -89 150 -397q42 97 92 231.5t50 165.5q25 -3 51 -3q21 0 41 3q-22 -24 -165 -349t-147 -374q-19 3 -41 3q-29 0 -51 -3q21 30 64 107.5t58 110.5q-53 132 -124 295.5t-96 209.5z" />
    <glyph glyph-name="afii10086" unicode="&#x444;" horiz-adv-x="836" 
d="M369 718q6 0 17.5 -1t20 -1.5t13.5 -0.5q2 0 47 3q-9 -86 -9 -279q56 74 161 74q70 0 124.5 -73.5t54.5 -182.5q0 -106 -57.5 -188.5t-147.5 -82.5q-84 0 -135 65q0 -187 9 -272q-23 3 -46 3q-29 0 -52 -3q9 86 9 272q-54 -65 -143 -65t-143 81.5t-54 188.5
q0 109 55.5 183t127.5 74q101 0 157 -74q0 193 -9 279zM458 376v-266q41 -78 121 -78q47 0 88 58t41 159q0 217 -134 217q-42 0 -66.5 -21t-49.5 -69zM378 110v266q-25 49 -48.5 69.5t-66.5 20.5q-135 0 -135 -217q0 -101 41.5 -159t87.5 -58q40 0 72.5 22t48.5 56z" />
    <glyph glyph-name="afii10087" unicode="&#x445;" horiz-adv-x="504" 
d="M15 503q28 -3 61 -3q25 0 48 3q37 -67 133 -195q97 122 138 195q18 -3 38 -3q21 0 37 3q-28 -31 -95.5 -113.5t-91.5 -116.5q124 -175 209 -276q-27 3 -56 3q-37 0 -65 -3q-34 75 -139 211q-18 -23 -74 -103t-73 -108q-18 3 -36 3q-21 0 -37 -3q83 104 194 247
q-98 143 -191 259z" />
    <glyph glyph-name="afii10088" unicode="&#x446;" horiz-adv-x="591" 
d="M553 -145h-32q4 29 4 56q0 54 -18 71.5t-54 17.5q-41 0 -92 -1.5t-55 -1.5q-6 0 -75 1.5t-103 1.5q-9 0 -60 -3q9 86 9 253q0 169 -9 253l51 -3q2 0 47 3q-9 -84 -9 -253q0 -120 5 -196q74 -9 119 -9q65 0 126 9q5 74 5 196q0 169 -9 253q6 0 17.5 -1t20 -1.5t13.5 -0.5
q2 0 47 3q-9 -84 -9 -253q0 -129 5 -198l71 5z" />
    <glyph glyph-name="afii10089" unicode="&#x447;" horiz-adv-x="570" 
d="M404 503l51 -3q2 0 47 3q-9 -84 -9 -253q0 -168 9 -253q-22 3 -46 3q-30 0 -52 -3q9 85 9 220q-58 -47 -146 -47q-76 0 -133.5 48t-57.5 122q0 77 -8 163l51 -3q2 0 47 3q-7 -67 -7 -115q0 -165 139 -165q77 0 115 44q0 152 -9 236z" />
    <glyph glyph-name="afii10090" unicode="&#x448;" horiz-adv-x="804" 
d="M68 503l51 -3q2 0 47 3q-9 -84 -9 -253q0 -131 5 -196q37 -9 100 -9q52 0 95 9q5 85 5 196q0 169 -9 253l51 -3q2 0 47 3q-9 -84 -9 -253q0 -137 5 -197q49 -8 94 -8q41 0 101 8q5 71 5 197q0 169 -9 253l51 -3q2 0 47 3q-9 -84 -9 -253q0 -168 9 -253q-38 3 -82 3
q-30 0 -118 -1.5t-134 -1.5q-26 0 -111.5 1.5t-131.5 1.5q-61 0 -91 -3q9 86 9 253q0 169 -9 253z" />
    <glyph glyph-name="afii10091" unicode="&#x449;" horiz-adv-x="826" 
d="M68 503l51 -3q2 0 47 3q-9 -84 -9 -253q0 -131 5 -196q37 -9 100 -9q52 0 95 9q5 85 5 196q0 169 -9 253l51 -3q2 0 47 3q-9 -84 -9 -253q0 -137 5 -197q49 -8 94 -8q41 0 101 8q5 71 5 197q0 169 -9 253l51 -3q2 0 47 3q-9 -84 -9 -253q0 -129 5 -198l71 5l-15 -202h-32
q4 29 4 56q0 54 -18 71.5t-54 17.5q-20 0 -129 -1.5t-157 -1.5q-26 0 -111.5 1.5t-131.5 1.5q-61 0 -91 -3q9 86 9 253q0 169 -9 253z" />
    <glyph glyph-name="afii10092" unicode="&#x44a;" horiz-adv-x="590" 
d="M13 503q18 -3 76 -3h105q2 0 47 3q-9 -91 -9 -200q12 0 31.5 1t35.5 1.5t31 0.5q222 0 222 -151q0 -80 -60 -119t-161 -39q-14 0 -60.5 1.5t-70.5 1.5q-36 0 -57 -3q9 85 9 253q0 138 -4 198q-16 3 -45 3q-68 0 -90 -9q4 18 4 32q0 11 -4 29zM232 260q0 -144 5 -217
q25 -7 92 -7q128 0 128 118q0 64 -37.5 88.5t-88.5 24.5q-54 0 -99 -7z" />
    <glyph glyph-name="afii10093" unicode="&#x44b;" horiz-adv-x="721" 
d="M68 503l51 -3q2 0 47 3q-9 -91 -9 -200q12 0 31.5 1t35.5 1.5t31 0.5q222 0 222 -151q0 -80 -60 -119t-161 -39q-14 0 -60.5 1.5t-70.5 1.5q-36 0 -57 -3q9 86 9 253q0 169 -9 253zM157 260q0 -144 5 -217q24 -7 92 -7q128 0 128 118q0 64 -37.5 88.5t-88.5 24.5
q-54 0 -99 -7zM555 503l51 -3q2 0 47 3q-9 -84 -9 -253q0 -168 9 -253q-23 3 -46 3q-29 0 -52 -3q9 86 9 253q0 169 -9 253z" />
    <glyph glyph-name="afii10094" unicode="&#x44c;" horiz-adv-x="515" 
d="M68 503l51 -3q2 0 47 3q-9 -91 -9 -200q12 0 31.5 1t35.5 1.5t31 0.5q222 0 222 -151q0 -80 -60 -119t-161 -39q-14 0 -60.5 1.5t-70.5 1.5q-36 0 -57 -3q9 86 9 253q0 169 -9 253zM157 260q0 -144 5 -217q24 -7 92 -7q128 0 128 118q0 64 -37.5 88.5t-88.5 24.5
q-54 0 -99 -7z" />
    <glyph glyph-name="afii10095" unicode="&#x44d;" horiz-adv-x="505" 
d="M53 400l-25 69q71 44 188 44q115 0 183 -73.5t68 -190.5q0 -116 -67 -189.5t-186 -73.5q-117 0 -182 39q18 45 24 83q25 -38 64 -59.5t83 -21.5q73 0 123.5 57.5t50.5 151.5h-120q-44 0 -110 -8q2 18 2 32q0 11 -2 33q66 -8 110 -8h120q0 80 -45 137.5t-124 57.5
q-55 0 -88 -20.5t-59 -59.5h-8z" />
    <glyph glyph-name="afii10096" unicode="&#x44e;" horiz-adv-x="785" 
d="M157 287h85q12 103 83 164.5t175 61.5q112 0 179.5 -73t67.5 -187q0 -117 -70 -192t-187 -75q-114 0 -182 72.5t-68 183.5h-83q0 -160 9 -245q-22 3 -46 3q-30 0 -52 -3q9 86 9 253q0 169 -9 253l51 -3q2 0 47 3q-9 -84 -9 -216zM335 242q0 -92 39.5 -154.5t113.5 -62.5
q76 0 120 64.5t44 167.5q0 91 -38 154t-117 63q-77 0 -119.5 -68t-42.5 -164z" />
    <glyph glyph-name="afii10097" unicode="&#x44f;" horiz-adv-x="520" 
d="M363 269q0 101 -5 182q-34 17 -83 17q-58 0 -88.5 -26t-30.5 -75q0 -111 131 -111q28 0 76 13zM363 221q-20 -4 -42 -4q-31 -36 -93 -115t-81 -105q-26 3 -61 3q-34 0 -61 -3q36 33 105 106.5t102 113.5q-67 0 -118 39.5t-51 104.5t48.5 108.5t139.5 43.5q21 0 74 -6.5
t62 -6.5q44 0 65 3q-9 -84 -9 -253q0 -168 9 -253q-22 3 -46 3q-30 0 -52 -3q9 87 9 224z" />
    <glyph glyph-name="afii10071" unicode="&#x451;" horiz-adv-x="528" 
d="M470 104l9 -10l-12 -50q-82 -58 -182 -58q-113 0 -180 70.5t-67 188.5q0 121 62 194.5t180 73.5q213 0 213 -237q0 -15 -2 -35q-76 8 -125 8h-233q0 -224 174 -224q90 0 163 79zM133 294h264v29q0 62 -34 106.5t-88 44.5q-63 0 -99 -49.5t-43 -130.5zM172 698
q54 0 54 -53q0 -24 -14.5 -39.5t-39.5 -15.5t-39.5 15.5t-14.5 39.5q0 23 15 38t39 15zM366 698q54 0 54 -53q0 -24 -14.5 -39.5t-39.5 -15.5t-39.5 15.5t-14.5 39.5q0 23 15 38t39 15z" />
    <glyph glyph-name="afii10099" unicode="&#x452;" horiz-adv-x="568" 
d="M68 785l51 -3q2 0 47 3q-5 -59 -7 -134h166q31 0 67 9q-2 -20 -2 -31q0 -9 2 -31q-29 8 -66 8h-169v-187q25 47 69 70.5t95 23.5q75 0 124 -44t49 -119q0 -12 -1.5 -47.5t-1.5 -52.5v-212q0 -116 -56 -184.5t-126 -68.5q-31 0 -70.5 11.5t-60.5 28.5q13 23 32 73
q44 -73 97 -73q56 0 80 46t24 145v234q0 110 -31.5 158t-92.5 48q-43 0 -71 -19.5t-40 -56t-15.5 -67.5t-3.5 -76q0 -155 9 -240q-22 3 -46 3q-30 0 -52 -3q9 86 9 300v188q0 81 -2 121q-53 0 -70 -8q2 14 2 30q0 12 -2 32q23 -9 70 -9q-2 90 -7 134z" />
    <glyph glyph-name="afii10100" unicode="&#x453;" horiz-adv-x="430" 
d="M405 502q-2 -14 -2 -34q0 -14 2 -30q-122 7 -243 7q-5 -47 -5 -195q0 -168 9 -253q-22 3 -46 3q-30 0 -52 -3q9 86 9 253q0 169 -9 253q50 -10 140 -10q87 0 197 9zM223 524h-38q66 110 89 167q39 -6 60 -6q18 0 55 6l5 -14q-105 -86 -171 -153z" />
    <glyph glyph-name="afii10101" unicode="&#x454;" horiz-adv-x="505" 
d="M482 469l-25 -75h-12q-49 80 -139 80q-74 0 -117.5 -53.5t-53.5 -130.5h117q37 0 111 9q-2 -18 -2 -34q0 -8 2 -32q-65 9 -109 9h-121q0 -94 53 -155.5t141 -61.5q39 0 70 15.5t66 53.5l9 -11l-12 -49q-72 -48 -164 -48q-115 0 -186.5 72.5t-71.5 190.5q0 115 73.5 189.5
t197.5 74.5q93 0 173 -44z" />
    <glyph glyph-name="afii10102" unicode="&#x455;" horiz-adv-x="411" 
d="M340 479q-19 -40 -30 -73q-38 68 -103 68q-37 0 -61 -22.5t-24 -59.5q0 -74 109 -101q72 -18 104.5 -46.5t32.5 -89.5q0 -71 -58 -120t-135 -49t-132 41q18 32 32 73q46 -75 119 -75q45 0 74.5 25t29.5 67q0 24 -8.5 41t-27.5 28t-36 17t-46 14q-128 34 -128 141
q0 70 47 112.5t123 42.5q65 0 118 -34z" />
    <glyph glyph-name="afii10103" unicode="&#x456;" horiz-adv-x="288" 
d="M93 503q6 0 17.5 -1t20 -1.5t13.5 -0.5q2 0 47 3q-9 -84 -9 -253q0 -168 9 -253q-23 3 -46 3q-29 0 -52 -3q9 86 9 253q0 169 -9 253zM144 742q54 0 54 -53q0 -24 -14.5 -39.5t-39.5 -15.5t-39.5 15.5t-14.5 39.5q0 23 15 38t39 15z" />
    <glyph glyph-name="afii10104" unicode="&#x457;" horiz-adv-x="288" 
d="M93 503q6 0 17.5 -1t20 -1.5t13.5 -0.5q2 0 47 3q-9 -84 -9 -253q0 -168 9 -253q-23 3 -46 3q-29 0 -52 -3q9 86 9 253q0 169 -9 253zM54 742q54 0 54 -53q0 -24 -14.5 -39.5t-39.5 -15.5t-39.5 15.5t-14.5 39.5q0 23 15 38t39 15zM230 742q54 0 54 -53
q0 -24 -14.5 -39.5t-39.5 -15.5t-39.5 15.5t-14.5 39.5q0 23 15 38t39 15z" />
    <glyph glyph-name="afii10105" unicode="&#x458;" horiz-adv-x="293" 
d="M6 -216l-9 32l28 7q24 6 41.5 27t25.5 50.5t11.5 57.5t3.5 57v188q0 215 -9 300q6 0 17.5 -1t20 -1.5t13.5 -0.5q2 0 47 3q-9 -85 -9 -300v-188q0 -28 -0.5 -44.5t-4.5 -41t-10.5 -40t-20 -34t-32.5 -31t-47.5 -23.5t-65.5 -17zM149 742q54 0 54 -53q0 -24 -14.5 -39.5
t-39.5 -15.5t-39.5 15.5t-14.5 39.5q0 23 15 38t39 15z" />
    <glyph glyph-name="afii10106" unicode="&#x459;" horiz-adv-x="757" 
d="M392 256l74 -216q32 -4 56 -4q43 0 72.5 27.5t29.5 90.5q0 34 -13.5 58.5t-35 36t-42 16.5t-41.5 5q-49 0 -100 -14zM306 503l69 -204q68 10 117 10q100 0 163.5 -38t63.5 -115q0 -80 -61.5 -119.5t-166.5 -39.5q-6 0 -23.5 1.5t-24.5 1.5q-31 0 -61 -3q-49 192 -130 404
q-39 -81 -94 -222.5t-59 -181.5q-5 0 -15.5 1t-18 1.5t-11.5 0.5q-26 0 -42 -3q13 12 102.5 210t131.5 296q15 -3 29 -3q16 0 31 3z" />
    <glyph glyph-name="afii10107" unicode="&#x45a;" horiz-adv-x="856" 
d="M68 503l51 -3q2 0 47 3q-9 -85 -9 -207q84 -4 135 -4q66 0 126 4q0 123 -9 207l51 -3q2 0 47 3q-9 -91 -9 -200q12 0 31.5 1t35.5 1.5t31 0.5q222 0 222 -151q0 -80 -60 -119t-161 -39q-14 0 -60.5 1.5t-70.5 1.5q-36 0 -57 -3q9 85 9 243q-103 7 -127 7q-67 0 -134 -5
q0 -160 9 -245q-22 3 -46 3q-30 0 -52 -3q9 86 9 253q0 169 -9 253zM498 260q0 -144 5 -217q25 -7 92 -7q128 0 128 118q0 64 -37.5 88.5t-88.5 24.5q-54 0 -99 -7z" />
    <glyph glyph-name="afii10108" unicode="&#x45b;" horiz-adv-x="568" 
d="M68 785l51 -3q2 0 47 3q-5 -59 -7 -134h166q31 0 67 9q-2 -20 -2 -31q0 -9 2 -31q-29 8 -66 8h-169v-187q25 47 69 70.5t95 23.5q75 0 124 -44t49 -119q0 -12 -1.5 -47.5t-1.5 -52.5q0 -168 9 -253q-22 3 -46 3q-30 0 -52 -3q9 85 9 253q0 110 -31.5 158t-92.5 48
q-43 0 -71 -19.5t-40 -56t-15.5 -67.5t-3.5 -76q0 -155 9 -240q-22 3 -46 3q-30 0 -52 -3q9 86 9 300v188q0 81 -2 121q-53 0 -70 -8q2 14 2 30q0 12 -2 32q23 -9 70 -9q-2 90 -7 134z" />
    <glyph glyph-name="afii10109" unicode="&#x45c;" horiz-adv-x="522" 
d="M68 503l51 -3q2 0 47 3q-9 -84 -9 -220h16q22 0 112 95.5t106 124.5q42 -3 49 -3q4 0 49 3l-239 -214q99 -118 261 -292q-41 3 -60 3q-35 0 -66 -3q-25 40 -91.5 120t-120.5 139h-16q0 -174 9 -259q-22 3 -46 3q-30 0 -52 -3q9 86 9 253q0 169 -9 253zM267 537h-38
q66 110 89 167q39 -6 60 -6q18 0 55 6l5 -14q-105 -86 -171 -153z" />
    <glyph glyph-name="afii10110" unicode="&#x45e;" horiz-adv-x="526" 
d="M12 503q27 -3 62 -3q30 0 56 3q10 -89 150 -397q42 97 92 231.5t50 165.5q25 -3 51 -3q21 0 41 3q-22 -24 -165 -349t-147 -374q-19 3 -41 3q-29 0 -51 -3q21 30 64 107.5t58 110.5q-53 132 -124 295.5t-96 209.5zM145 700l2 2q45 -75 128 -75q89 0 133 75l4 -2
q0 -38 11 -73q-72 -37 -148 -37q-75 0 -142 37q9 30 12 73z" />
    <glyph glyph-name="afii10193" unicode="&#x45f;" horiz-adv-x="569" 
d="M68 503l51 -3q2 0 47 3q-9 -84 -9 -253q0 -120 5 -196q74 -9 119 -9q65 0 126 9q5 74 5 196q0 169 -9 253q6 0 17.5 -1t20 -1.5t13.5 -0.5q2 0 47 3q-9 -84 -9 -253q0 -168 9 -253q-71 3 -151 3q-49 0 -49 -142h-33q0 142 -59 142q-87 0 -141 -3q9 86 9 253q0 169 -9 253
z" />
    <glyph glyph-name="afii10050" unicode="&#x490;" horiz-adv-x="521" 
d="M96 724q63 -3 146 -3h100q60 0 80 22.5t20 89.5q0 10 -2 28h31q0 -19 7 -94.5t11 -106.5q-84 8 -209 8h-83q-3 -22 -3 -283q0 -241 8 -388q-48 3 -50 3q-8 0 -56 -3q8 147 8 388q0 276 -8 339z" />
    <glyph glyph-name="afii10098" unicode="&#x491;" horiz-adv-x="430" 
d="M367 630h31q0 -107 7 -192q-122 7 -243 7q-5 -47 -5 -195q0 -168 9 -253q-22 3 -46 3q-30 0 -52 -3q9 86 9 253q0 169 -9 253q50 -10 140 -10h95q37 0 51.5 22t14.5 74q0 21 -2 41z" />
    <glyph glyph-name="endash" unicode="&#x2013;" horiz-adv-x="594" 
d="M562 292v-56h-530v56h530z" />
    <glyph glyph-name="emdash" unicode="&#x2014;" horiz-adv-x="792" 
d="M32 236v56h729v-56h-729z" />
    <glyph glyph-name="quoteleft" unicode="&#x2018;" horiz-adv-x="293" 
d="M211 735l25 -10l-68 -220q-19 -60 -54 -60q-39 0 -39 38q0 28 29 76z" />
    <glyph glyph-name="quoteright" unicode="&#x2019;" horiz-adv-x="293" 
d="M104 445l-25 10l68 220q19 60 54 60q39 0 39 -38q0 -28 -29 -76z" />
    <glyph glyph-name="quotesinglbase" unicode="&#x201a;" horiz-adv-x="294" 
d="M69 -198l-22 13l73 238q17 55 54 55q40 0 40 -40q0 -23 -28 -72z" />
    <glyph glyph-name="quotedblleft" unicode="&#x201c;" horiz-adv-x="450" 
d="M211 735l25 -10l-68 -220q-19 -60 -54 -60q-39 0 -39 38q0 28 29 76zM365 735l25 -10l-68 -220q-19 -60 -54 -60q-39 0 -39 38q0 28 29 76z" />
    <glyph glyph-name="quotedblright" unicode="&#x201d;" horiz-adv-x="450" 
d="M100 445l-25 10l68 220q19 60 54 60q39 0 39 -38q0 -28 -29 -76zM246 445l-25 10l68 220q19 60 54 60q39 0 39 -38q0 -28 -29 -76z" />
    <glyph glyph-name="quotedblbase" unicode="&#x201e;" horiz-adv-x="489" 
d="M69 -198l-22 13l73 238q17 55 54 55q40 0 40 -40q0 -23 -28 -72zM264 -198l-22 13l73 238q17 55 54 55q40 0 40 -40q0 -23 -28 -72z" />
    <glyph glyph-name="dagger" unicode="&#x2020;" horiz-adv-x="586" 
d="M257 730q24 -8 36 -8q8 0 37 8l-11 -261q65 0 186 11q-8 -26 -8 -36q0 -16 8 -37q-88 9 -186 9v-150q0 -136 11 -299q-20 8 -37 8q-15 0 -36 -8q10 149 10 299v150q-109 0 -186 -9q6 18 8 37q0 13 -8 36q128 -11 186 -11z" />
    <glyph glyph-name="daggerdbl" unicode="&#x2021;" 
d="M500 80q-2 -26 -2 -48q0 -17 2 -41q-133 9 -275 9q-118 0 -192 -9q2 24 2 37t-2 35q83 0 119 50.5t36 150.5q0 36 -4 84q-52 0 -95 -9q2 18 2 32q0 13 -2 33q63 -9 96 -9q-2 22 -2 53q0 126 52 193.5t153 67.5q63 0 138 -50q-23 -26 -43 -77q-33 86 -104 86
q-111 0 -111 -150q0 -90 3 -123h38q73 0 113 9q-4 -17 -4 -34q0 -13 4 -31q-53 9 -106 9h-45q0 -78 -26 -153.5t-81 -123.5h57q199 0 279 9z" />
    <glyph glyph-name="bullet" unicode="&#x2022;" horiz-adv-x="762" 
d="M381 588q87 0 148.5 -62t61.5 -148t-61.5 -148t-148.5 -62q-88 0 -149 61t-61 149q0 85 62 147.5t148 62.5z" />
    <glyph glyph-name="ellipsis" unicode="&#x2026;" horiz-adv-x="939" 
d="M162 108q25 0 43 -18.5t18 -44.5q0 -25 -18.5 -42t-42.5 -17q-26 0 -43.5 18t-17.5 43t17.5 43t43.5 18zM469 108q25 0 43 -18.5t18 -44.5q0 -25 -18.5 -42t-42.5 -17q-26 0 -43.5 18t-17.5 43t17.5 43t43.5 18zM776 108q25 0 43 -18.5t18 -44.5q0 -25 -18.5 -42
t-42.5 -17q-26 0 -43.5 18t-17.5 43t17.5 43t43.5 18z" />
    <glyph glyph-name="perthousand" unicode="&#x2030;" horiz-adv-x="1309" 
d="M565 721q11 -3 23 -3q14 0 27 3q-120 -360 -240 -740q-15 4 -23 4q-15 0 -27 -4q64 189 240 740zM688 330q67 0 108 -49t41 -121q0 -71 -39 -119t-110 -48q-72 0 -113 47t-41 120t42.5 121.5t111.5 48.5zM686 296q-82 0 -82 -124q0 -145 82 -145q81 0 81 138
q0 131 -81 131zM258 711q67 0 108 -49t41 -121q0 -71 -39 -119t-110 -48q-72 0 -113 47t-41 120t42.5 121.5t111.5 48.5zM256 677q-82 0 -82 -124q0 -145 82 -145q81 0 81 138q0 131 -81 131zM1058 330q67 0 108 -49t41 -121q0 -71 -39 -119t-110 -48q-72 0 -113 47t-41 120
t42.5 121.5t111.5 48.5zM1056 296q-82 0 -82 -124q0 -145 82 -145q81 0 81 138q0 131 -81 131z" />
    <glyph glyph-name="guilsinglleft" unicode="&#x2039;" horiz-adv-x="235" 
d="M213 392q-58 -74 -98 -140q40 -65 101 -146q-33 -9 -55 -35q-74 123 -120 181q83 113 120 182q17 -33 52 -42z" />
    <glyph glyph-name="guilsinglright" unicode="&#x203a;" horiz-adv-x="235" 
d="M24 392q35 9 52 42q37 -69 120 -182q-46 -58 -120 -181q-22 26 -55 35q61 81 101 146q-40 66 -98 140z" />
    <glyph glyph-name="Euro" unicode="&#x20ac;" 
d="M540 564h-21q-7 53 -45.5 79t-96.5 26q-91 0 -134.5 -64t-55.5 -187h296l-16 -38h-282q0 -4 -0.5 -16t-0.5 -16q0 -25 1 -34h253l-16 -37h-235q8 -121 57 -186.5t133 -65.5q55 0 94.5 26t47.5 81h21l-7 -83q-50 -63 -175 -63q-240 0 -265 291h-72l16 37h51q-1 9 -1 35
q0 4 0.5 15t0.5 16h-67l16 38h54q17 144 78.5 217.5t188.5 73.5q125 0 175 -59z" />
    <glyph glyph-name="afii61352" unicode="&#x2116;" horiz-adv-x="1158" 
d="M103 721h28l521 -550v214q0 276 -8 339q23 -3 36 -3q8 0 35 3q-8 -63 -8 -339q0 -252 8 -399h-28q-80 94 -144 161l-377 394v-156q0 -241 8 -388q-16 3 -35 3q-21 0 -36 -3q8 147 8 388q0 273 -8 336zM940 707q67 0 108 -49.5t41 -121.5q0 -74 -40 -120.5t-109 -46.5
q-72 0 -113 46.5t-41 121.5q0 72 43.5 121t110.5 49zM937 673q-81 0 -81 -125q0 -145 82 -145q81 0 81 139q0 131 -82 131zM1029 228h-186q-15 0 -35 -3q4 20 4 30q0 8 -4 26q17 -4 35 -4h184q23 0 39 4q-3 -13 -3 -27q0 -12 3 -29q-16 3 -37 3z" />
    <glyph glyph-name="trademark" unicode="&#x2122;" horiz-adv-x="694" 
d="M10 721q60 -5 143 -5q70 0 127 5q-2 -12 -2 -19t2 -17q-25 4 -52 4h-54q-3 -50 -3 -153q0 -110 4 -182q-12 2 -24 2q-11 0 -29 -2q4 72 4 182q0 99 -3 153h-50q-37 0 -63 -4q2 12 2 19q0 5 -2 17zM312 716h10q96 -192 154 -286q109 194 154 286h10q19 -214 44 -362
q-14 2 -25 2q-13 0 -27 -2q-12 167 -27 265q-72 -130 -137 -263h-10q-90 181 -132 259q-25 -191 -25 -261q-12 2 -19 2q-8 0 -22 -2q18 82 52 362z" />
    <glyph glyph-name="hyphenminus" horiz-adv-x="364" 
d="M18 292h332v-56h-332v56z" />
    </font>
</defs>
</svg>
